<?xml version="1.0" encoding="UTF-8"?>
<svg id="Ebene_1" xmlns="http://www.w3.org/2000/svg" version="1.1" viewBox="0 0 30 60">
  <!-- Generator: Adobe Illustrator 29.1.0, SVG Export Plug-In . SVG Version: 2.1.0 Build 142)  -->
  <g>
    <path d="M16.0263999,16.4489082V1.0276388C16.0263999.4592588,15.5675377,0,14.9996508,0s-1.0267373.4592588-1.0267373,1.0276388v15.4212694c0,.5683796.4588504,1.0276384,1.0267373,1.0276384s1.0267491-.4592588,1.0267491-1.0276384" style="fill: #ddab57;"/>
    <path d="M.3404502,24.824334l12.6025417,7.2820899v-8.7416852l-10.5490671-6.0953064V6.8521626c0-.5661075-.4588504-1.0276214-1.029016-1.0276214-.565614,0-1.0244645.4615139-1.0244645,1.0276214v17.9721714h.0000059Z" style="fill: #ddab57;"/>
    <path d="M29.6572711,6.8535335c0-.5683804-.4588504-1.0276392-1.0267373-1.0276392s-1.0267373.4592588-1.0267373,1.0276392v10.4172528l-10.5467943,6.0953138v8.7394064l12.6025535-7.2820811-.0022787-17.9698897-.0000059-.0000022Z" style="fill: #ddab57;"/>
  </g>
  <polygon points=".3404502 52.717694 12.9429919 59.999781 12.9429919 51.2580958 .3404502 43.9760148 .3404502 52.717694" style="fill: #ddab57;"/>
  <polygon points="29.6593249 43.9762308 17.0567773 51.2583208 17.0567773 60 29.6593249 52.7179189 29.6593249 43.9762308" style="fill: #ddab57;"/>
  <polygon points=".3404502 38.7948802 12.9429919 46.0769701 12.9429919 37.3352849 .3404502 30.0532039 .3404502 38.7948802" style="fill: #ddab57;"/>
  <polygon points="29.6593249 30.0534288 17.0567773 37.3355187 17.0567773 46.077198 29.6593249 38.795114 29.6593249 30.0534288" style="fill: #ddab57;"/>
</svg>