<?xml version="1.0" encoding="UTF-8"?>
<svg id="Ebene_1" xmlns="http://www.w3.org/2000/svg" version="1.1" viewBox="0 0 20.3 28.2">
  <!-- Generator: Adobe Illustrator 29.1.0, SVG Export Plug-In . SVG Version: 2.1.0 Build 142)  -->
  <defs>
    <style>
      .st0 {
        fill: #0d222f;
      }
    </style>
  </defs>
  <g id="Gruppe_4820">
    <g id="Gruppe_3776">
      <path id="Pfad_2198" class="st0" d="M16.9,21.5c1.8,0,3.3,1.5,3.3,3.3,0,1.8-1.5,3.3-3.3,3.3-.8,0-1.5-.2-2.1-.7-.6-.5-1-1.1-1.1-1.9H2.8l-1.4,2.3c-.1.2-.3.3-.5.3-.2,0-.4,0-.6-.1-.2-.1-.3-.3-.3-.5,0-.2,0-.4.1-.6l6.6-10.1c-1.6-.5-2.9-1.5-4-2.7-1.1-1.2-1.7-2.7-2-4.3h17.7c-.5,3.3-2.9,6-6,7.1l2.5,4c-.2.1-.4.3-.7.4-.2.2-.4.3-.6.5l-2.8-4.5c-.2,0-.4,0-.6,0h-1.3c-.2,0-.4,0-.6,0l-4.4,6.8h9.9c.1-.7.5-1.4,1.1-1.9.6-.5,1.3-.7,2.1-.7M16.9,26.7c1,0,1.8-.8,1.8-1.8s-.8-1.8-1.8-1.8c-1,0-1.8.8-1.8,1.8,0,.5.2.9.5,1.3.3.4.8.5,1.3.5M9.5,15.8c1.5,0,2.9-.4,4.1-1.3,1.2-.8,2.2-1.9,2.8-3.3H2.6c.6,1.3,1.6,2.4,2.8,3.3,1.2.8,2.7,1.3,4.1,1.3M5.9,7.2c.1-.6,0-1.2,0-1.8-.2-.6-.5-1.1-.9-1.6-.4-.5-.8-1.2-1-1.8-.2-.6-.2-1.3,0-2h.7c-.1.6,0,1.2,0,1.8.2.6.5,1.1.9,1.6.4.5.8,1.1,1,1.8.2.6.2,1.3,0,2h-.8M9.7,7.2c.1-.6,0-1.2,0-1.8-.2-.6-.5-1.1-.9-1.6-.4-.5-.8-1.1-1-1.8-.2-.6-.2-1.3,0-2h.8c-.1.6,0,1.2,0,1.8.2.6.5,1.1.9,1.6.4.5.8,1.1,1,1.8.2.6.2,1.3,0,2h-.8M13.4,7.1c.1-.6,0-1.2,0-1.8-.2-.6-.5-1.1-.9-1.6-.4-.5-.8-1.1-1-1.8-.2-.6-.2-1.3,0-2h.8c-.1.6,0,1.2,0,1.8.2.6.5,1.1.9,1.6.4.5.8,1.1,1,1.8.2.6.2,1.3,0,2h-.8"/>
    </g>
  </g>
</svg>