<?xml version="1.0" encoding="UTF-8"?>
<svg id="Ebene_1" xmlns="http://www.w3.org/2000/svg" version="1.1" viewBox="0 0 27 24">
  <!-- Generator: Adobe Illustrator 29.1.0, SVG Export Plug-In . SVG Version: 2.1.0 Build 142)  -->
  <defs>
    <style>
      .st0 {
        fill: #0d222f;
      }
    </style>
  </defs>
  <g id="Gruppe_4815">
    <path id="Pfad_2200" class="st0" d="M5,18.8h17v-1.5H5"/>
    <path id="Pfad_2201" class="st0" d="M5,12.8h17v-1.5H5"/>
    <path id="Pfad_2202" class="st0" d="M5,6.8h17v-1.5H5"/>
    <g id="Gruppe_3781">
      <g id="Gruppe_3780">
        <path id="Pfad_2203" class="st0" d="M2.4,24C1.1,24,0,23,0,21.7c0,0,0,0,0-.1V2.4C0,1.1,1,0,2.3,0c0,0,0,0,.1,0h22.2c1.3,0,2.4,1,2.4,2.3,0,0,0,0,0,.1v19.2c0,1.3-1,2.4-2.3,2.4,0,0,0,0-.1,0H2.4ZM2.4,22.5h22.2c.5,0,.9-.4.9-.9V2.4c0-.2-.1-.5-.3-.6-.2-.2-.4-.3-.6-.3H2.4c-.2,0-.5.1-.6.3-.2.2-.3.4-.3.6v19.2c0,.2.1.5.3.6.2.2.4.3.6.3M1.5,22.5h0Z"/>
      </g>
    </g>
  </g>
</svg>