<?xml version="1.0" encoding="UTF-8"?>
<svg id="Ebene_1" xmlns="http://www.w3.org/2000/svg" version="1.1" viewBox="0 0 38.3 25">
  <!-- Generator: Adobe Illustrator 29.1.0, SVG Export Plug-In . SVG Version: 2.1.0 Build 142)  -->
  <defs>
    <style>
      .st0 {
        fill: #0d222f;
      }
    </style>
  </defs>
  <g id="Gruppe_4822">
    <g id="Gruppe_4229">
      <path id="Pfad_2568" class="st0" d="M7.4,25C3.4,25.1,0,21.8,0,17.8c0,0,0-.2,0-.2,0-2,.8-3.9,2.2-5.3,1.4-1.4,3.3-2.2,5.3-2.2,1.8,0,3.6.7,4.9,1.9,1.4,1.2,2.3,3,2.4,4.8h3.3l-3.7-10.4h-2.7v-1.4h6.5v1.4h-2.3l1.3,3.7h10.2l-3-8.1c0-.2-.2-.3-.3-.4-.2,0-.3-.1-.5-.1h-3.5V0h3.4c.5,0,1,.1,1.4.4.4.3.7.7.9,1.1l3.1,8.5h2c4.1,0,7.4,3.3,7.4,7.4h0c0,2-.7,3.9-2.2,5.3-2.8,2.8-7.3,2.9-10.2.2-1.4-1.2-2.2-2.9-2.5-4.8h-8.7c-.2,1.9-1,3.6-2.4,4.8-1.3,1.2-3.1,1.9-4.9,1.9M7.4,23.6c1.4,0,2.8-.5,3.9-1.4,1.2-1,1.9-2.4,2.2-3.9h-5v-1.4h5c-.2-1.5-1-2.9-2.1-3.9-1.1-.9-2.4-1.4-3.8-1.4-1.6,0-3.2.6-4.3,1.7-1.1,1.1-1.8,2.7-1.7,4.3,0,1.6.6,3.1,1.7,4.3,1.1,1.2,2.7,1.8,4.3,1.8M19.6,16.8h3.9c.2-1,.5-1.9.9-2.8.4-1.1,1.2-1.9,2.2-2.5h-8.9l2,5.3M30.9,23.6c1.6,0,3.2-.6,4.3-1.8,1.1-1.1,1.8-2.7,1.7-4.3,0-3.3-2.6-6-5.9-6,0,0,0,0-.1,0-.3,0-.5,0-.8,0-.2,0-.5,0-.7.1l1.7,4.7-1.3.5-1.7-4.7c-1,.5-1.8,1.3-2.4,2.3-.5.9-.8,2-.8,3.1,0,1.6.6,3.1,1.7,4.3,1.1,1.2,2.7,1.8,4.3,1.8"/>
    </g>
  </g>
</svg>