<?xml version="1.0" encoding="UTF-8"?>
<svg id="kulinarik" xmlns="http://www.w3.org/2000/svg" version="1.1" viewBox="0 0 40 40">
  <!-- Generator: Adobe Illustrator 29.1.0, SVG Export Plug-In . SVG Version: 2.1.0 Build 142)  -->
  <defs>
    <style>
      .st0 {
        fill: #0d222f;
      }
    </style>
  </defs>
  <path class="st0" d="M15.220604,32.2358524v-1.7590998h4.2356997v-6.3913501c-2.1550667-.3177995-3.8440496-1.2205663-5.0669508-2.7083002-1.2229001-1.4877339-1.8343502-3.2348169-1.8343502-5.2412501v-7.7000001h15.561699v7.7000001c-.0000021,2.0101673-.6114511,3.7581849-1.8343491,5.2440507-1.2229001,1.4858669-2.911883,2.3877001-5.0669508,2.7054996v6.3913501h4.2357007v1.7590998h-10.2304987ZM20.3337539,22.4267519c1.5372016,0,2.8772333-.5449492,4.0200995-1.6348497,1.1426355-1.0901334,1.7896677-2.3489659,1.9411008-3.7764998h-11.9182009c.141866,1.4275339.7858669,2.6863665,1.9320005,3.7764998,1.1461336,1.0899005,2.4878006,1.6348497,4.0250001,1.6348497ZM14.3141042,15.256302h12.0435015v-5.0613496h-12.0435004s0,5.0613496-.0000011,5.0613496Z"/>
</svg>