<?xml version="1.0" encoding="UTF-8"?>
<svg id="allgemein" xmlns="http://www.w3.org/2000/svg" version="1.1" viewBox="0 0 40 40">
  <!-- Generator: Adobe Illustrator 29.1.0, SVG Export Plug-In . SVG Version: 2.1.0 Build 142)  -->
  <defs>
    <style>
      .st0 {
        fill: #0d222f;
      }
    </style>
  </defs>
  <path class="st0" d="M13.6337025,27.0002025h13.4310685v-1.7591004h-13.4310685v1.7591004ZM13.6337025,21.2154024h13.4042995v-1.7591004h-13.4042995v1.7591004ZM13.6337025,15.4306013h13.4042995v-1.7591004h-13.4042995v1.7591004ZM10.6258023,32.2358524c-.6017671,0-1.1172-.2145502-1.5462998-.64365-.4290998-.4291003-.64365-.9445332-.6436505-1.5463003V10.6258023c0-.6017655.2145502-1.1171973.64365-1.5462998.4291003-.4290982.9445332-.6436505,1.5463003-.6436505h19.4200998c.6017655,0,1.1171973.2145523,1.5462998.6436505.4290982.4291025.6436505.9445343.6436505,1.5462998v19.4200998c0,.6017671-.2145523,1.1172-.6436505,1.5462998-.4291025.4290998-.9445343.64365-1.5462998.6436505H10.6258023ZM10.6258023,30.4767526h19.4200998c.1078006,0,.2066162-.0448.296449-.1343999.0895999-.0898338.1344009-.18865.1344009-.29645V10.6258023c0-.1078006-.044801-.2066162-.1344009-.296449-.0898328-.0895999-.1886484-.1344009-.296449-.1344009H10.6258023c-.1078001,0-.2066167.044801-.29645.1344009-.0896004.0898328-.1343999.1886484-.1343999.296449v19.4200998c0,.1078001.0447994.2066167.1343999.29645.0898333.0896004.18865.1343999.29645.1344004ZM10.1949524,10.1949524v20.2817996V10.1949524Z"/>
</svg>