<?xml version="1.0" encoding="UTF-8"?>
<svg id="sehenswürdigkeiten" xmlns="http://www.w3.org/2000/svg" version="1.1" viewBox="0 0 40 40">
  <!-- Generator: Adobe Illustrator 29.1.0, SVG Export Plug-In . SVG Version: 2.1.0 Build 142)  -->
  <defs>
    <style>
      .st0 {
        fill: #0d222f;
      }
    </style>
  </defs>
  <path class="st0" d="M5.285852,32.4599078v-15.9295504h1.7590998v2.8h4.0113501V7.9599075h1.7591004v2.8h3.8408997v-2.8h1.7591004v2.8h3.8408997v-2.8h1.7591004v2.8h3.8408997v-2.8h1.7591004v11.37045h4.0113495v-2.8h1.7591004v15.9295504h-11.7295503v-3.8500001c0-.9314659-.3204837-1.7177996-.961449-2.3589998-.6412003-.6409674-1.4275328-.9614501-2.3589998-.9614501s-1.7178006.3204826-2.3589998.9614501c-.6409663.6412003-.9614501,1.4275339-.9614501,2.3589998v3.8500001H5.285852ZM7.0449518,30.700808h8.2113501v-2.0909002c0-1.415633.4926831-2.6161336,1.4780504-3.6014998.9853662-.9853673,2.1858669-1.4780504,3.6014998-1.4780504s2.6161325.4926831,3.6015009,1.4780504c.9853662.9853662,1.4780493,2.1858669,1.4780493,3.6014998v2.0909002h8.2113496v-9.6113502h-5.7704499v-8.57045h-15.0408999v8.57045h-5.7704502s0,9.6113496-.0000003,9.6113502ZM16.656302,19.6894578h1.7591004v-3.4642994h-1.7591004s0,3.4643004,0,3.4642994ZM22.2563021,19.6894578h1.7591004v-3.4642994h-1.7591004s0,3.4643004,0,3.4642994Z"/>
</svg>