<?xml version="1.0" encoding="UTF-8"?>
<svg id="wohnzimmer" xmlns="http://www.w3.org/2000/svg" version="1.1" viewBox="0 0 40 40">
  <!-- Generator: Adobe Illustrator 29.1.0, SVG Export Plug-In . SVG Version: 2.1.0 Build 142)  -->
  <defs>
    <style>
      .st0 {
        fill: #0d222f;
      }
    </style>
  </defs>
  <path class="st0" d="M8.6673501,14.4100007c0-.9204996.3185002-1.6992496.9555001-2.33625s1.415633-.9554996,2.3358997-.9554996h16.0825002c.9202646,0,1.6989014.3184992,2.3358997.9554996s.9554996,1.4157504.9554996,2.33625v2.5826493c.9531647-.0538992,1.7526831.2074323,2.3985489.7840009.6458658.5763336.9688019,1.3458679.9688019,2.3086008v7.7717497c0,.9202667-.3185013,1.6990167-.9554996,2.33625-.6372333.6370004-1.4159833.9555001-2.33625.9555001H8.5917494c-.9202667,0-1.6990167-.3184997-2.33625-.9555001-.6369996-.6372333-.9554996-1.4159833-.9554996-2.33625v-7.7717497c0-.9627329.3253834-1.7322672.97615-2.3086008.6505332-.5765686,1.4476-.8379001,2.3911998-.7840009l.0000005-2.5826493ZM10.4261001,14.4100007v3.3004996c.3698333.2811664.6672174.6093491.8921502.9845502.2249328.375199.3374.8386008.3374,1.3902001v3.8983002h16.688701v-3.8983002c-.0000021-.5515993.1124661-1.0150011.3374005-1.3902001.2249344-.3752011.5223169-.7033838.8921497-.9845502v-3.3004996c0-.4437998-.1445523-.8102487-.4336505-1.0993491-.2891025-.2890982-.655434-.4336505-1.0990009-.4336505H11.9587499c-.4435669,0-.8099.1445502-1.0989998.4336505s-.43365.6555493-.43365,1.0993491ZM30.1034517,25.7426511H9.8965499v-5.6563506c0-.2125656-.0325497-.4048328-.0976498-.5767993-.0653334-.1719666-.1621666-.3221179-.2905001-.4504498-.128333-.128334-.28-.2251672-.455-.2904996-.175-.0650995-.3643501-.0976492-.5680499-.0976492-.4333002,0-.7793337.1293829-1.0381001.3881509-.2587667.258768-.3881499.6017676-.3881499,1.0289998v7.7700001c0,.4402995.1445502.8055832.43365,1.0958499.2891003.2905001.6554329.4357499,1.0989998.4357499h22.8165007c.4435669,0,.8099005-.1445502,1.0990009-.43365.2891003-.2891003.4336505-.6541501.4336505-1.0951503v-7.7728007c0-.4272333-.1293829-.7702329-.3881509-1.0290009-.258768-.2587659-.6047989-.3881509-1.0380991-.3881509-.2036981,0-.3930493.0325497-.5680493.0976492-.175.0653345-.3257324.1621655-.4521994.2904996-.1262341.128334-.2229477.2780154-.2901492.4490506-.0671994.171033-.1008002.3634155-.1008002.5771497l-.0000021,5.6574017Z"/>
</svg>