<?xml version="1.0" encoding="UTF-8"?>
<svg id="Ebene_1" xmlns="http://www.w3.org/2000/svg" version="1.1" viewBox="0 0 30 18.9">
  <!-- Generator: Adobe Illustrator 29.1.0, SVG Export Plug-In . SVG Version: 2.1.0 Build 142)  -->
  <defs>
    <style>
      .st0 {
        fill: #0d222f;
      }
    </style>
  </defs>
  <g id="Gruppe_4817">
    <g id="Gruppe_3772">
      <path id="Pfad_2196" class="st0" d="M3,3c0-.8.3-1.6.9-2.1.6-.6,1.3-.9,2.1-.9h18c.8,0,1.6.3,2.1.9.6.6.9,1.3.9,2.1v2.4c1.6,0,3,1.3,3,2.9,0,0,0,0,0,0v7.5c0,1.6-1.3,3-2.9,3,0,0,0,0,0,0H3c-.8,0-1.6-.3-2.1-.9-.6-.6-.9-1.3-.9-2.1v-7.5c0-.8.3-1.6.9-2.1.6-.6,1.3-.9,2.1-.9v-2.4ZM4.5,3v2.9c.4.3.8.6,1.1,1.1.3.4.4,1,.4,1.5v3.8h18v-3.8c0-.5.1-1,.4-1.5.3-.4.6-.8,1.1-1.1v-2.9c0-.8-.6-1.5-1.4-1.5,0,0,0,0,0,0H6c-.8,0-1.5.6-1.5,1.4,0,0,0,0,0,0M25.5,13.7H4.5v-5.2c0-.2,0-.4-.1-.6,0-.2-.2-.3-.3-.5-.1-.1-.3-.2-.5-.3-.2,0-.4-.1-.6-.1-.8,0-1.5.6-1.5,1.4,0,0,0,0,0,0v7.5c0,.8.6,1.5,1.4,1.5,0,0,0,0,0,0h24c.8,0,1.5-.6,1.5-1.4,0,0,0,0,0,0v-7.5c0-.8-.6-1.5-1.4-1.5,0,0,0,0,0,0-.2,0-.4,0-.6.1-.2,0-.3.2-.5.3-.1.1-.2.3-.3.5,0,.2-.1.4-.1.6v5.2Z"/>
    </g>
  </g>
</svg>