<?xml version="1.0" encoding="UTF-8"?>
<svg id="bad" xmlns="http://www.w3.org/2000/svg" version="1.1" viewBox="0 0 40 40">
  <!-- Generator: Adobe Illustrator 29.1.0, SVG Export Plug-In . SVG Version: 2.1.0 Build 142)  -->
  <defs>
    <style>
      .st0 {
        fill: #0d222f;
      }
    </style>
  </defs>
  <path class="st0" d="M19.065529,27.4400068c-.2080539.2080539-.4597489.312906-.7550835.3145562s-.5481021-.1026248-.7583017-.3128244c-.2101989-.2101989-.3139792-.4629656-.3113388-.7583009.0024743-.2955.106667-.5462048.3125767-.7521145.2101996-.2101996.4618931-.3150517.7550842-.314557.2931904.0004939.5448854.1058415.7550835.3160411.2103643.2103643.3152994.4621408.314804.7553312-.0004947.2931896-.1047698.5438121-.3128244.7518683ZM23.2517778,23.2537579c-.2101989.2101989-.4618939.3150509-.7550842.314557s-.5448846-.1058422-.7550842-.3160419c-.2101989-.2101989-.3150509-.4618939-.3145562-.7550835.0001646-.2931904.1054299-.5449677.3157934-.7553312.2101989-.2101989.4618939-.3150525.7550835-.3145562.2931904.0004939.5448839.105843.7550835.3160411.2103635.210365.3152994.4621408.314804.7553312-.0003308.2930257-.1056768.5447192-.3160396.7550835ZM27.4414918,19.0640439c-.2103643.2103643-.4621416.3152987-.7553312.314804s-.5448846-.1058422-.7550842-.3160419-.3150517-.4618946-.3145555-.7550842c.0003301-.2933558.104522-.5440599.3125767-.7521145s.4597481-.3129067.7550835-.3145562c.2953346-.0016503.5481021.1026248.7583009.3128237.2103643.2103643.3142262.4632141.3115858.7585494s-.1068332.5458755-.3125759.7516198ZM13.0166899,25.8865288l-1.2438718-1.2438718c-1.660475-1.660475-2.5403755-3.664298-2.6397012-6.011469-.0994897-2.347004.5845651-4.4141845,2.0521649-6.2015391l-2.0979495-2.0979495,1.2438718-1.2438718,2.097951,2.097951c1.7873531-1.4676014,3.8545328-2.1516553,6.2015391-2.0521649,2.3471679.0993258,4.3509924.9792247,6.0114675,2.6396997l1.2438718,1.2438718-12.8693436,12.8693436ZM13.0166899,23.3987852l10.3816-10.3816c-1.4319616-1.4319616-3.1606603-2.1494273-5.1860977-2.1523985-2.0257667-.0029682-3.7561179.7130111-5.1910477,2.1479439-1.4349336,1.4349306-2.1534702,3.1656942-2.155616,5.1922849-.0019811,2.026426.7150737,3.7576836,2.1511614,5.1937697ZM22.2751928,30.6496706c-.2080539.2080539-.4597485.3129064-.7550835.3145562s-.5481021-.1026248-.7583013-.312824c-.2101996-.2101996-.3139796-.462966-.3113392-.7583013.0026397-.2953346.1069147-.5459571.3128244-.7518668.2101996-.2101996.4618939-.3150509.7550842-.314557.293025.0003301.5447196.1056772.7550839.3160415.2101992.2101992.3150521.4618935.3145566.7550839-.0004947.2931896-.1047698.5438121-.3128252.7518675ZM26.4614416,26.4634218c-.2101989.2101989-.4618935.3150513-.7550842.314557s-.5448846-.1058422-.7550839-.3160415c-.2101996-.2101996-.3150513-.4618942-.3145566-.7550839.0003301-.293025.1056776-.54472.3160411-.7550835.2101989-.2101989.4618946-.3150517.7550835-.3145562.2930257.0003293.5447188.105678.7550839.3160415.2101985.2102.3150521.4618935.3145566.7550839-.0003308.2930257-.1056768.5447192-.3160404.7550827ZM30.6511557,22.2737078c-.2103643.2103643-.4621412.3152991-.7553312.314804s-.5448846-.1058422-.7550839-.3160415c-.2101996-.2101996-.3150513-.4618942-.3145559-.7550846s.1047698-.5438121.3128244-.7518668.4597489-.312906.7550835-.3145562c.2951699-.0018149.547937.1024598.7583013.312824.2101992.2101992.3139788.4629667.3113384.7583021s-.1068332.5458755-.3125767.751619Z"/>
</svg>