<?xml version="1.0" encoding="UTF-8"?>
<svg id="Ebene_1" xmlns="http://www.w3.org/2000/svg" version="1.1" viewBox="0 0 17.1 26.7">
  <!-- Generator: Adobe Illustrator 29.1.0, SVG Export Plug-In . SVG Version: 2.1.0 Build 142)  -->
  <defs>
    <style>
      .st0 {
        fill: #0d222f;
      }
    </style>
  </defs>
  <g id="Gruppe_4821">
    <g id="Gruppe_4220">
      <path id="Pfad_2562" class="st0" d="M3,26.7v-1.4h4.8v-7.8c-2.3-.2-4.3-1.4-5.8-3.1C.7,12.6,0,10.5,0,8.3V0h17.1v8.3c0,2.2-.7,4.3-2,6-1.4,1.8-3.5,2.9-5.8,3.1v7.8h4.8v1.4H3ZM8.5,16.1c1.8,0,3.6-.8,4.9-2.1,1.3-1.3,2.1-3.1,2.2-4.9H1.4c.1,1.9.9,3.6,2.2,4.9,1.3,1.3,3,2.1,4.9,2.1M1.4,7.6h14.2V1.4H1.4v6.2Z"/>
    </g>
  </g>
</svg>