<?xml version="1.0" encoding="UTF-8"?>
<svg id="Ebene_1" xmlns="http://www.w3.org/2000/svg" version="1.1" viewBox="0 0 35 28.3">
  <!-- Generator: Adobe Illustrator 29.1.0, SVG Export Plug-In . SVG Version: 2.1.0 Build 142)  -->
  <defs>
    <style>
      .st0 {
        fill: #0d222f;
      }
    </style>
  </defs>
  <g id="Gruppe_4823">
    <g id="Gruppe_4228">
      <path id="Pfad_2567" class="st0" d="M0,28.3V10.1h1.4v3.3h5.4V0h1.4v3.3h5.3V0h1.4v3.3h5.3V0h1.4v3.3h5.3V0h1.4v13.5h5.4v-3.3h1.4v18.2h-13.2v-4.2c0-2.3-1.8-4.3-4.2-4.3,0,0,0,0-.1,0-2.3,0-4.3,1.8-4.3,4.2,0,0,0,0,0,.1v4.2H0ZM1.4,26.9h10.4v-2.8c0-3.1,2.5-5.7,5.6-5.7,0,0,0,0,0,0,3.1,0,5.7,2.5,5.7,5.6,0,0,0,0,0,0v2.8h10.4v-12.1h-6.8V4.7H8.2v10.1H1.4v12.1ZM13.5,13.2h1.4v-3.5h-1.4v3.5ZM20.1,13.2h1.4v-3.5h-1.4v3.5Z"/>
    </g>
  </g>
</svg>