<?xml version="1.0" encoding="UTF-8"?>
<svg id="Ebene_1" xmlns="http://www.w3.org/2000/svg" version="1.1" viewBox="0 0 28.7 22.5">
  <!-- Generator: Adobe Illustrator 29.1.0, SVG Export Plug-In . SVG Version: 2.1.0 Build 142)  -->
  <defs>
    <style>
      .st0 {
        fill: #0d222f;
      }
    </style>
  </defs>
  <g id="Gruppe_4816">
    <g id="Gruppe_3770">
      <path id="Pfad_2195" class="st0" d="M3.7,9.9c.1-.8,0-1.5-.1-2.3-.3-.9-.7-1.7-1.3-2.4-.6-.8-1-1.7-1.4-2.6-.2-.8-.3-1.7-.2-2.6h1.5c0,.7,0,1.5.2,2.2.3.9.7,1.7,1.2,2.4.6.8,1.1,1.7,1.4,2.7.2.8.3,1.7.2,2.6h-1.5ZM9.6,9.9c.1-.8,0-1.5-.1-2.3-.3-.9-.7-1.7-1.3-2.4-.6-.8-1-1.7-1.4-2.6-.2-.8-.3-1.7-.2-2.6h1.5c0,.7,0,1.5.2,2.2.3.9.7,1.7,1.2,2.4.6.8,1.1,1.7,1.4,2.7.2.8.3,1.7.2,2.6h-1.5ZM15.6,9.9c.1-.8,0-1.5-.2-2.3-.3-.9-.8-1.7-1.3-2.4-.6-.8-1-1.7-1.3-2.6-.2-.8-.3-1.7-.2-2.6h1.5c0,.7,0,1.5.2,2.2.3.9.7,1.7,1.2,2.4.6.8,1.1,1.7,1.4,2.7.2.8.3,1.7.2,2.6h-1.5ZM3,22.5c-.8,0-1.6-.3-2.1-.9-.6-.6-.9-1.3-.9-2.1v-6h19.5c0-.7.3-1.4.7-2,.4-.6,1-1,1.8-1.3l6.3-2.1.5,1.4-6.3,2.1c-.4.1-.8.4-1,.8-.3.4-.4.8-.4,1.3v5.8c0,.8-.3,1.6-.9,2.1-.6.6-1.3.9-2.1.9H3ZM3,21h15c.8,0,1.5-.6,1.5-1.4,0,0,0,0,0,0v-4.5H1.5v4.5c0,.8.6,1.5,1.4,1.5,0,0,0,0,0,0"/>
    </g>
  </g>
</svg>