<?xml version="1.0" encoding="UTF-8"?>
<svg id="aktivitäten" xmlns="http://www.w3.org/2000/svg" version="1.1" viewBox="0 0 40 40">
  <!-- Generator: Adobe Illustrator 29.1.0, SVG Export Plug-In . SVG Version: 2.1.0 Build 142)  -->
  <defs>
    <style>
      .st0 {
        fill: #0d222f;
      }
    </style>
  </defs>
  <path class="st0" d="M10.4287522,32.2773721c-1.8384336,0-3.3884667-.6332668-4.6501001-1.8998-1.2618668-1.2665337-1.8928001-2.821467-1.8928001-4.6648,0-1.8253673.6409667-3.3779668,1.9229001-4.6578007,1.2819335-1.2798328,2.8306833-1.9197492,4.6462501-1.9197492,1.6286664,0,3.0535161.5350339,4.2745502,1.6050995,1.2210341,1.0700667,1.9416829,2.4184992,2.1619496,4.0453007h2.1216999l-2.9330007-8.2491502h-2.3943491v-1.7591004h6.0917497v1.7591004h-1.8343502l.9404498,2.59875h8.0125488l-2.4142994-6.5565507c-.0268332-.0807346-.0716342-.1412839-.1344009-.1816501-.0630017-.0403662-.1348666-.0605493-.2155991-.0605493h-3.3130991v-1.7591004h3.2091501c.5007346,0,.9411505.127283,1.32125.3818491.3803323.254566.6571835.6178662.8305493,1.0899005l2.5938495,7.08085h1.4661505c1.8092655,0,3.3525339.6355991,4.6298011,1.9068004,1.2775,1.2712003,1.91625,2.8070005,1.91625,4.6074006,0,1.8195333-.6332663,3.3755166-1.8998011,4.6679499-1.2662998,1.2922005-2.8150498,1.9383007-4.6462501,1.9383002-1.6400974.0000005-3.0698487-.5446005-4.2892496-1.6337998-1.2196338-1.0892004-1.9556848-2.4466162-2.208151-4.0722503h-6.8508987c-.2202667,1.6447661-.9452329,3.0115162-2.1748995,4.1002498-1.2299005,1.0884997-2.659184,1.6327498-4.2878504,1.6327498ZM10.431902,30.5182723c1.1412336,0,2.1428165-.3644671,3.0047503-1.0934002s1.4284664-1.6890993,1.6995999-2.8804996h-4.1461003v-1.75875h4.1461003c-.2711336-1.1864998-.8395332-2.1271836-1.7052001-2.8220502s-1.8576837-1.0423-2.97605-1.0423c-1.3484336,0-2.4872166.4625836-3.4163501,1.3877498-.9291334.9249344-1.3937001,2.0579996-1.3937,3.3991999-.0000001,1.3356001.4624667,2.4712331,1.3874,3.4068999.9251667.9354334,2.0583502,1.4031499,3.39955,1.4031504ZM20.9172017,24.7856224h2.8395502c.0891342-.5905673.2995999-1.2659494.6313992-2.0261505.3317993-.7599661.8034833-1.3816829,1.4150498-1.8651503h-6.3003483l1.4143491,3.8913009ZM30.2415531,30.5182723c1.3414331,0,2.4743808-.467717,3.3988495-1.4031504.9242316-.9356668,1.3863495-2.0699005,1.3863495-3.4027001,0-1.3454001-.4624661-2.4803334-1.3874005-3.4048-.9251651-.9242337-2.0583499-1.3863516-3.3995502-1.3863506-.1465347-.0000011-.2882864.0022163-.4252509.0066501-.1369687.0044337-.2727667.0201831-.4074005.0472502l1.4125995,3.9091501-1.646051.5904498-1.4465506-3.8948c-.7413019.4234992-1.3056171,1.0122005-1.6929499,1.7660997-.3875656.7539003-.5813495,1.5412839-.5813495,2.3621497,0,1.3356001.462699,2.4712331,1.3880991,3.4068999.9256308.9354334,2.059166,1.4031494,3.4006055,1.4031515Z"/>
</svg>