<?xml version="1.0" encoding="UTF-8"?>
<svg id="Ebene_1" xmlns="http://www.w3.org/2000/svg" version="1.1" viewBox="0 0 29.5 29.5">
  <!-- Generator: Adobe Illustrator 29.1.0, SVG Export Plug-In . SVG Version: 2.1.0 Build 142)  -->
  <defs>
    <style>
      .st0 {
        fill: #0d222f;
      }
    </style>
  </defs>
  <g id="Gruppe_4819">
    <g id="Gruppe_3768">
      <path id="Pfad_2194" class="st0" d="M14,22.2c-.5.5-1.2.5-1.6,0s-.5-1.2,0-1.6c.5-.5,1.2-.4,1.6,0,.2.2.3.5.3.8,0,.3-.1.6-.3.8M18.1,18.1c-.5.4-1.2.4-1.6,0-.4-.5-.4-1.2,0-1.6s1.2-.4,1.6,0c.2.2.3.5.3.8,0,.3-.1.6-.3.8M22.3,13.9c-.5.4-1.2.4-1.6,0-.4-.5-.4-1.2,0-1.6s1.2-.4,1.6,0c.2.2.3.5.3.8,0,.3-.1.6-.3.8M7.6,20.3l-1.1-1.1c-1.6-1.6-2.6-3.7-2.6-6-.1-2.3.6-4.5,2.1-6.2l-2.1-2.1,1.1-1.1,2.1,2.1c1.7-1.5,3.9-2.2,6.2-2.1,2.3,0,4.4,1,6,2.6l1.1,1.1-12.7,12.7ZM7.6,18.2l10.6-10.6c-1.4-1.4-3.3-2.2-5.3-2.2-2,0-3.9.8-5.3,2.2-1.4,1.4-2.2,3.3-2.2,5.3,0,2,.8,3.9,2.2,5.3M17.1,25.3c-.5.5-1.2.5-1.6,0s-.5-1.2,0-1.6c.5-.5,1.2-.4,1.6,0,.2.2.3.5.3.8,0,.3-.1.6-.3.8M21.2,21.2c-.2.2-.5.3-.8.3-.3,0-.6-.1-.8-.3-.4-.5-.4-1.2,0-1.6.2-.2.5-.3.8-.3.6,0,1.2.5,1.2,1.1,0,.3-.1.6-.3.8M25.4,17c-.5.4-1.2.4-1.6,0-.4-.5-.4-1.2,0-1.6s1.2-.4,1.6,0c.2.2.3.5.3.8,0,.3-.1.6-.3.8"/>
    </g>
  </g>
</svg>