<?xml version="1.0" encoding="UTF-8"?>
<svg id="küche" xmlns="http://www.w3.org/2000/svg" version="1.1" viewBox="0 0 40 40">
  <!-- Generator: Adobe Illustrator 29.1.0, SVG Export Plug-In . SVG Version: 2.1.0 Build 142)  -->
  <defs>
    <style>
      .st0 {
        fill: #0d222f;
      }
    </style>
  </defs>
  <path class="st0" d="M9.7329153,18.3308499c.1148005-.8292655.0745502-1.5621656-.1207499-2.1987003-.1955335-.6365347-.5972163-1.4-1.2050503-2.2904001-.6190331-.8992655-1.0308663-1.7209473-1.2355001-2.4650498-.2046333-.7443332-.2573669-1.6032346-.1581999-2.5766999h1.7149998c-.0921666.8232007-.044683,1.5480493.1424503,2.1745502.1868993.6264987.5890501,1.3818015,1.2064501,2.2658997.6311669.9125656,1.0467332,1.7456827,1.2466998,2.4993512.1997327.7538992.2409166,1.6175836.12355,2.5910511,0,0-1.7146502,0-1.7146497-.0000021ZM15.4494659,18.3308499c.1148-.8292655.0757166-1.5621656-.1172502-2.1987003-.1929678-.6365347-.5933669-1.4-1.2012003-2.2904001-.6192676-.8992655-1.0323836-1.7209473-1.2393501-2.4650498-.2069666-.7443332-.2607494-1.6032346-.1613495-2.5766999h1.7146497c-.0919337.8232007-.0468999,1.5480493.1350995,2.1745502.1822343.6264987.5820491,1.3818015,1.1994496,2.2658997.6311664.9125656,1.0490665,1.7456827,1.2537003,2.4993512.2046338.7538992.2483838,1.6175836.13125,2.5910511,0,0-1.715,0-1.714999-.0000021ZM21.2199158,18.3308499c.1147989-.8292655.0735013-1.5621656-.1238992-2.1987003-.1973984-.6365347-.6000148-1.4-1.2078504-2.2904001-.6192665-.8992655-1.0301662-1.7209473-1.2327001-2.4650498-.2025328-.7443332-.2541003-1.6032346-.1547005-2.5766999h1.715c-.0921666.8232007-.0471349,1.5480493.1350995,2.1745502.1819994.6264987.5818152,1.3818015,1.1994507,2.2658997.6311664.9125656,1.0490665,1.7456827,1.2537003,2.4993512.2044009.7538992.2480335,1.6175836.1308997,2.5910511l-1.715-.0000021ZM9.782965,31.2000002c-.9877006,0-1.8180171-.33635-2.49095-1.0090501-.6726998-.6729329-1.0090501-1.5032494-1.0090501-2.49095v-6.3000001h19.2482507c.0119009-.729167.2166501-1.3871666.6142496-1.9740009.3975995-.5866004.9343808-.9944687,1.6103504-1.2236008l6.2454002-2.1045502.5554498,1.6604001-6.2454002,2.0902001c-.3331986.1112997-.5878842.3210658-.7640506.6293004-.1761664.3084663-.2642496.6439998-.2642496,1.0066004v6.215651c0,.9692671-.3363516,1.7949164-1.0090506,2.4769497-.6729318.6820338-1.5032483,1.0230504-2.4909494,1.0230504h-14.0000002ZM9.782965,29.4409003h14.0000002c.4949005,0,.9087161-.1688167,1.241449-.5064501.3329678-.3378662.4994507-.7493496.4994507-1.2344502v-4.5408997H8.0420648v4.5408997c0,.4948995.1664834.9087167.4994502,1.2414501.3327334.3329668.7465495.4994502,1.2414501.4994502Z"/>
</svg>