<?xml version="1.0" encoding="UTF-8"?>
<svg id="schlafzimmer" xmlns="http://www.w3.org/2000/svg" version="1.1" viewBox="0 0 40 40">
  <!-- Generator: Adobe Illustrator 29.1.0, SVG Export Plug-In . SVG Version: 2.1.0 Build 142)  -->
  <defs>
    <style>
      .st0 {
        fill: #0d222f;
      }
    </style>
  </defs>
  <path class="st0" d="M9.6309,31.1849288h-.9103498l-.6132002-2.8h-1.4073503v-6.1134495c0-.6176334.2101167-1.1420491.6303501-1.5732505.4204665-.4312003.9403332-.6467993,1.5596002-.6467993h.7143501v-4.1765507c.0000005-.5999005.21385-1.1148688.6415501-1.5449005.4277-.4300339.9437161-.6450498,1.5480493-.6450498h16.3978501c.5999005,0,1.1147492.2150159,1.5445502.6450498.4300317.4300317.6450519.945.6450498,1.5449005v4.1765507h.7287003c.5999005,0,1.1148688.215018,1.5449005.6450498.4300339.4300339.6450498.9448825.6450498,1.5445491v6.1439004h-1.4073508l-.6142496,2.8h-.9124503l-.6142496-2.8H10.2626496l-.6317496,2.8ZM20.8795502,20.0514295h7.7430494v-4.1765507c.0000021-.1257684-.0418829-.2290167-.1256509-.3097492-.0837659-.0807324-.1854996-.1210986-.305199-.1211008h-7.3121995v4.6074006ZM11.3630503,20.0514295h7.7573996v-4.6074006h-7.3265502c-.1257668,0-.2290167.0403662-.3097502.1211008-.0807335.0807324-.1211002.183985-.1211002.3097492l.0000011,4.1765507ZM8.4591002,26.6258294h23.0817997v-4.3848c0-.1196994-.0403662-.2214342-.1211008-.3052-.0807324-.0837669-.183985-.1256499-.3097492-.1256499H8.8899501c-.1257668,0-.2290167.0418829-.3097502.1256499-.0807335.0837659-.1211002.1855006-.1211002.3052l.0000005,4.3848ZM31.5408998,26.6258294H8.4590996h23.0818002Z"/>
</svg>