<?xml version="1.0" encoding="UTF-8"?>
<svg id="außenbereich" xmlns="http://www.w3.org/2000/svg" version="1.1" viewBox="0 0 40 40">
  <!-- Generator: Adobe Illustrator 29.1.0, SVG Export Plug-In . SVG Version: 2.1.0 Build 142)  -->
  <defs>
    <style>
      .st0 {
        fill: #0d222f;
      }
    </style>
  </defs>
  <path class="st0" d="M26.5340324,24.2253019c.9699661,0,1.7943332.3393829,2.4731012,1.0181499.678768.6787664,1.018151,1.503016,1.018151,2.4727498,0,.9699667-.3393829,1.7943338-1.018151,2.4731002-.678768.6785333-1.5031351,1.0177998-2.4731012,1.0178001-.7807346-.0000003-1.4845841-.2370666-2.1115506-.7112s-1.0299323-1.0949167-1.2088992-1.86235h-10.1769508l-1.3874,2.1574c-.1369666.2111667-.3224667.3439334-.5564998.3982999-.2337997.0543665-.4485838.0161-.6443501-.1148-.2170004-.1465334-.3551334-.3368168-.4143999-.5708499-.0592665-.2337997-.020417-.4562831.1165501-.66745l6.2335003-9.5325996c-1.6337998-.6092337-2.9673-1.563568-4.0005002-2.8630007-1.0332002-1.2994348-1.664484-2.8088654-1.89385-4.5283002h17.801699c-.223298,1.7194348-.8579678,3.2265326-1.9040009,4.5212998-1.046033,1.2945333-2.3686844,2.2433838-3.9679499,2.8465506l2.164401,3.4041004c-.2881668.1537669-.5470502.3133669-.7766501.4787998-.2293671.1654329-.4415823.3648169-.6366501.5981499l-2.5452001-4.0306002c-.1495671.046667-.3363506.0700011-.5603504.07h-1.3121486c-.2151334.0000011-.4022672-.023333-.5614003-.07l-4.00085,6.1438999h9.0230008c.178967-.7830663.5780832-1.4204165,1.1973508-1.9120497.6190326-.4913992,1.3267337-.7370999,2.1230991-.7370999ZM26.5340324,29.4483518c.4918671,0,.9035828-.1657832,1.2351492-.4973502.3313336-.3313331.4970004-.7429334.4970004-1.2348,0-.4858007-.1656668-.8958833-.4970004-1.2302498-.3315665-.3345999-.7432843-.5019004-1.2351492-.5018999-.4858002-.0000005-.8958838.1673-1.2302509.5018999-.3343671.3343671-.5015506.7444502-.5015506,1.2302498,0,.4918665.1671835.9034669.5015506,1.2348.3343671.331567.7444507.4973502,1.2302509.4973502ZM19.376182,19.0551017c1.4718671-.0000011,2.8066501-.4005165,4.0043513-1.2015506,1.1977011-.8012659,2.0885669-1.8621158,2.6725995-3.1825498h-13.3252008c.5695666,1.320434,1.4520327,2.3812839,2.6474,3.1825498,1.1953673.8010341,2.528984,1.2015495,4.00085,1.2015506ZM16.4085316,11.0114014c.1075667-.6491342.0900667-1.2118173-.0525-1.6880493-.1427995-.476232-.4582663-1.0296994-.9464003-1.6604001-.491866-.6353662-.8089659-1.2171814-.9512998-1.7454499-.1423338-.5282663-.1522502-1.1492835-.0297502-1.8630493h.8795502c-.0886664.7091004-.0640506,1.2918512.0738495,1.7482505s.4384335.9825678.9016004,1.5784992c.4715665.625798.783533,1.2076175.9358997,1.7454499.1526006.5380673.1753503,1.1663156.0682504,1.8847492h-.8791998ZM19.5018318,11.0114014c.0825995-.7375656.0561177-1.3373487-.0794496-1.7993491-.1355663-.4617654-.4348158-.9781329-.8977498-1.5491004-.4906996-.6208997-.8110669-1.197934-.9610997-1.7311008-.1502678-.532934-.1640337-1.158732-.0412997-1.8774005h.8791998c-.1075667.6239331-.0924005,1.1743649.0454996,1.6512998.137899.4769327.4479996,1.0354181.9302995,1.6754499.466666.6115686.7735002,1.1886008.9204996,1.7311008.1472333.5427329.1751175,1.1757663.0836505,1.8991004h-.8795502ZM22.6077326,11.0114014c.0921677-.7279996.0704657-1.3253345-.0650995-1.7920005-.1353345-.4666681-.4345819-.9854837-.8977498-1.5564511-.5061008-.6365347-.8327667-1.2198688-.98-1.75-.1472333-.5299005-.1594824-1.149401-.0367496-1.8584992h.8795502c-.1077995.6239331-.0902995,1.1743649.0525,1.6512998.1425667.4769327.4550011,1.0354181.9373,1.6754499.4727329.6020004.7810849,1.1742475.9250498,1.7167496.1441998.5427329.1657822,1.1805515.0647491,1.9134494l-.8795502.0000021Z"/>
</svg>