<?xml version="1.0" encoding="UTF-8"?>
<svg id="Ebene_1" xmlns="http://www.w3.org/2000/svg" version="1.1" viewBox="0 0 420 420">
  <!-- Generator: Adobe Illustrator 29.1.0, SVG Export Plug-In . SVG Version: 2.1.0 Build 142)  -->
  <defs>
    <style>
      .st0 {
        fill: #d6a14b;
      }
    </style>
  </defs>
  <g>
    <path class="st0" d="M212.6452179,51.1846619V11.4284277c0-1.465291-1.1829529-2.6492662-2.6469727-2.6492662s-2.6469421,1.1839752-2.6469421,2.6492662v39.7562342c0,1.4652901,1.1829224,2.6492653,2.6469421,2.6492653s2.6469727-1.1839752,2.6469727-2.6492653"/>
    <path class="st0" d="M172.2066345,72.776619l32.4895172,18.7733231v-22.5361786l-27.1956329-15.7137794v-26.8558578c0-1.4594326-1.1829224-2.6492214-2.6528168-2.6492214-1.4581604,0-2.6410828,1.1897888-2.6410828,2.6492214v46.3324928h.0000153Z"/>
    <path class="st0" d="M247.7857819,26.4476604c0-1.465292-1.1829224-2.6492672-2.6469421-2.6492672s-2.6469421,1.1839752-2.6469421,2.6492672v26.855814l-27.1897736,15.7137985v22.530304l32.4895477-18.7733002-.0058746-46.3266106-.0000153-.0000057Z"/>
  </g>
  <polygon class="st0" points="172.2066345 144.6860657 204.6961517 163.4593811 204.6961517 140.9232025 172.2066345 122.1499023 172.2066345 144.6860657"/>
  <polygon class="st0" points="247.7910767 122.1504593 215.3015442 140.9237823 215.3015442 163.4599457 247.7910767 144.6866455 247.7910767 122.1504593"/>
  <polygon class="st0" points="172.2066345 108.7928696 204.6961517 127.5661926 204.6961517 105.030014 172.2066345 86.2567139 172.2066345 108.7928696"/>
  <polygon class="st0" points="247.7910767 86.2572937 215.3015442 105.0306168 215.3015442 127.5667801 247.7910767 108.7934723 247.7910767 86.2572937"/>
  <g>
    <path class="st0" d="M43.7441139,170.1569214l-37.7775841-12.2849731c-1.3937469-.4513092-2.8811898.3047638-3.3379648,1.6997223-.4509192,1.3891144.3045166,2.8836975,1.704119,3.3408813l37.7775798,12.2849884c1.3937454.4513092,2.8811913-.3106232,3.3321114-1.6997223.4567719-1.4008331-.3045158-2.8895569-1.6982651-3.3408813"/>
    <path class="st0" d="M51.7651863,215.322464l27.8808022-25.1268005-21.4156952-6.9630585-23.3364792,21.0298615-25.5208015-8.2935486c-1.3878913-.4571686-2.8811927.3047638-3.3379674,1.7055969-.4509192,1.3890991.3162279,2.8778381,1.7041192,3.3291473,0,0,44.0260181,14.3188019,44.026022,14.3188019Z"/>
    <path class="st0" d="M31.0938034,129.0631409c-1.387888-.4513092-2.8811893.3047943-3.337965,1.6997375-.4509182,1.3890991.3103714,2.8836975,1.7041187,3.3408661l25.5208015,8.299408,6.5236778,30.7359467,21.4156837,6.9630585-7.8003006-36.7260437s-44.0260201-14.312973-44.0260162-14.312973Z"/>
  </g>
  <polygon class="st0" points="120.0957031 237.5433044 147.9765015 212.4165039 126.5608063 205.4534454 98.6800079 230.580246 120.0957031 237.5433044"/>
  <polygon class="st0" points="122.0387573 158.6321106 129.8390503 195.3581696 151.2488861 202.321228 143.4544373 165.5951843 122.0387573 158.6321106"/>
  <polygon class="st0" points="85.9887085 226.4522247 113.8695068 201.3254242 92.4538193 194.3623657 64.5730209 219.4891663 85.9887085 226.4522247"/>
  <polygon class="st0" points="87.9317627 147.540451 95.7320633 184.26651 117.1477509 191.2295685 109.3474426 154.5035248 87.9317627 147.540451"/>
  <g>
    <path class="st0" d="M104.6016846,367.6951294l-23.3481979,32.1660767c-.8608398,1.18396-.6031723,2.836792.5856094,3.6983948,1.18293.8616028,2.8343353.5978394,3.6951828-.5861206l23.3481979-32.1660767c.8667068-1.18396.5973129-2.836792-.5856094-3.6983948-1.18293-.8616028-2.834343-.6036987-3.6951828.5861206"/>
    <path class="st0" d="M149.9980316,374.0169983l-15.2609558-34.29953-13.2347488,18.2282104,12.7721176,28.7138367-15.7704239,21.7273254c-.8549881,1.18396-.5973282,2.8426514.5914612,3.7042542,1.18293.8557434,2.834343.59198,3.6951904-.59198l27.2073593-37.4821472v.0000305Z"/>
    <path class="st0" d="M61.6443977,367.0351562c-.8608475,1.18396-.6031761,2.8426514.5856056,3.7042542,1.1829338.8557434,2.8402023.59198,3.6951904-.5861206l15.7762833-21.7331848,31.2246246,3.2881165,13.2347488-18.2340698-37.3090973-3.9211121-27.2073517,37.4821472-.0000038-.0000305Z"/>
  </g>
  <polygon class="st0" points="192.2285614 315.8408203 176.9676056 281.5413208 163.7328644 299.7695312 178.9938202 334.0749207 192.2285614 315.8408203"/>
  <polygon class="st0" points="117.844635 289.6062622 155.153717 293.5332336 168.3884583 275.2991638 131.079361 271.3721924 117.844635 289.6062622"/>
  <polygon class="st0" points="171.1496124 344.8793945 155.8886566 310.5798645 142.6539154 328.808075 157.914856 363.1134644 171.1496124 344.8793945"/>
  <polygon class="st0" points="96.7656631 318.6448059 134.0747528 322.5717773 147.309494 304.3377075 110.0003967 300.4107361 96.7656631 318.6448059"/>
  <g>
    <path class="st0" d="M311.114624,370.8085938l23.3482056,32.1660767c.8608398,1.18396,2.5122375,1.4477234,3.6951904.5861206,1.1829224-.8616028,1.4464417-2.5144348.5856018-3.7042542l-23.3482056-32.1601868c-.8608398-1.1898193-2.5122681-1.4477234-3.6951904-.5861206-1.1887817.8616028-1.4464722,2.5085754-.5856018,3.6983948"/>
    <path class="st0" d="M331.1506348,329.5501099l-37.3091125,3.9269714,13.2347717,18.2282104,31.2304688-3.2822571,15.7704468,21.7273254c.8608398,1.1781006,2.5181274,1.4418335,3.7010498.5802612s1.4406128-2.5144348.5797729-3.6983948l-27.2073669-37.4821472-.0000305.0000305Z"/>
    <path class="st0" d="M297.2164001,411.4956055c.8549805,1.18396,2.5122681,1.4476929,3.6951904.5861206,1.1829224-.8616028,1.4464417-2.5144348.5856018-3.6983948l-15.7704468-21.7273254,12.7662659-28.7079773-13.2288818-18.2341003-15.2609558,34.29953,27.2131958,37.4821472h.0000305Z"/>
  </g>
  <polygon class="st0" points="288.920105 271.3745117 251.6109924 275.3015137 264.8457642 293.5297241 302.1548462 289.6086121 288.920105 271.3745117"/>
  <polygon class="st0" points="241.0050507 334.071991 256.2659912 299.7724609 243.0312347 281.5383606 227.7702942 315.8378906 241.0050507 334.071991"/>
  <polygon class="st0" points="309.999054 300.4125061 272.6899414 304.3394775 285.9247131 322.567688 323.2337952 318.6465759 309.999054 300.4125061"/>
  <polygon class="st0" points="262.0840149 363.1105347 277.3449707 328.8110046 264.110199 310.5769348 248.8492737 344.8764648 262.0840149 363.1105347"/>
  <g>
    <path class="st0" d="M377.889801,175.1945953l37.7775574-12.2849884c1.3937378-.4513092,2.1550293-1.9459076,1.6982727-3.3408661-.4509277-1.3891144-1.938385-2.1510468-3.3321228-1.6997375l-37.7775879,12.2850037c-1.3995972.4571686-2.1550293,1.9458923-1.7041321,3.3408661.4567871,1.3949585,1.9442139,2.1510468,3.3379822,1.6997223"/>
    <path class="st0" d="M344.8761292,143.3737488l-7.800293,36.7260742,21.4156799-6.9630585,6.529541-30.7418213,25.5149231-8.2993927c1.3937988-.4513245,2.1550598-1.9459076,1.6982727-3.3408813-.4508972-1.3949585-1.9442139-2.1510315-3.3321228-1.6997223l-44.0259705,14.3188019h-.0000305Z"/>
    <path class="st0" d="M412.2555847,200.9989624c1.3937988-.4513092,2.1550598-1.9400482,1.7041321-3.3408661-.4567566-1.3890991-1.9500732-2.1510468-3.3379517-1.6997375l-25.5207825,8.299408-23.3306274-21.0240021-21.4157104,6.9630585,27.8808289,25.1268158,44.0201416-14.3246918-.0000305.0000153Z"/>
  </g>
  <polygon class="st0" points="276.5455933 165.5951691 268.7453003 202.321228 290.1609802 195.3581696 297.9612732 158.6321106 276.5455933 165.5951691"/>
  <polygon class="st0" points="321.315918 230.578476 293.4351196 205.4516754 272.0252991 212.4147339 299.900238 237.5415497 321.315918 230.578476"/>
  <polygon class="st0" points="310.6520081 154.5035095 302.8517151 191.2295685 324.267395 184.26651 332.067688 147.540451 310.6520081 154.5035095"/>
  <polygon class="st0" points="355.4229126 219.4873962 327.5421143 194.3605957 306.1322937 201.3236542 334.0072327 226.45047 355.4229126 219.4873962"/>
  <g>
    <path class="st0" d="M166.3616791,204.6000366c0,5.9959869,4.8546906,10.8548889,10.845459,10.8548889s10.845459-4.858902,10.845459-10.8548889c0-5.9959564-4.8546906-10.8548584-10.845459-10.8548584s-10.845459,4.858902-10.845459,10.8548584"/>
    <path class="st0" d="M188.0508423,242.1038666c5.1884766,2.9950714,11.82341,1.2191162,14.8158722-3.9738617,2.9924469-5.1929932,1.2180634-11.8278198-3.9704285-14.8287201-5.1884766-2.9950714-11.8234253-1.2191162-14.8158722,3.9738617-2.9924622,5.1929932-1.2180634,11.8336792,3.9704285,14.8287354"/>
    <path class="st0" d="M204.3196259,214.0007629c5.1884766,2.9950714,11.82341,1.2191162,14.8158722-3.9738617,2.9924469-5.1929932,1.2180634-11.8278351-3.9704285-14.8287354-5.1884766-2.9950714-11.8234406-1.2191162-14.8158722,3.9738617-2.9924622,5.1929932-1.2180634,11.8336945,3.9704285,14.8287354"/>
    <path class="st0" d="M236.8548431,214.0007629c5.1884766,2.9950714,11.82341,1.2191162,14.8158722-3.9738617,2.9924469-5.1929932,1.2180634-11.8278351-3.9704285-14.8287354-5.1884766-2.9950714-11.8234406-1.2191162-14.8158722,3.9738617-2.9924622,5.1929932-1.2180634,11.8336945,3.9704285,14.8287354"/>
    <path class="st0" d="M204.3219757,270.2075806c5.1884766,2.9950562,11.82341,1.2191162,14.8158722-3.973877,2.9924469-5.1929932,1.2180634-11.8278198-3.9704285-14.8287354-5.1884766-2.9950714-11.8234406-1.2191162-14.8158722,3.9738617-2.9924622,5.1929779-1.2180634,11.8336945,3.9704285,14.8287506"/>
    <path class="st0" d="M220.5895844,242.1038666c5.1884766,2.9950714,11.82341,1.2191162,14.8158722-3.9738617,2.9924469-5.1929932,1.2180634-11.8278198-3.9704285-14.8287201-5.1884766-2.9950714-11.8234406-1.2191162-14.8158722,3.9738617-2.9924622,5.1929932-1.2180634,11.8336792,3.9704285,14.8287354"/>
  </g>
</svg>