<?xml version="1.0" encoding="UTF-8"?>
<svg id="Ebene_1" xmlns="http://www.w3.org/2000/svg" version="1.1" viewBox="0 0 225 225">
  <!-- Generator: Adobe Illustrator 29.1.0, SVG Export Plug-In . SVG Version: 2.1.0 Build 142)  -->
  <circle cx="112.4998477" cy="112.4849259" r="112.5" style="fill: #f8f4e8;"/>
  <g>
    <g>
      <path d="M113.5937045,39.6280299v-16.4148438c0-.605-.4888484-1.0938484-1.0938484-1.0938484s-1.0938392.4888484-1.0938392,1.0938484v16.4148438c0,.605.4888392,1.0938484,1.0938392,1.0938484s1.0938484-.4888484,1.0938484-1.0938484" style="fill: #d7b254;"/>
      <path d="M96.8826382,48.5430745l13.4261516,7.7512671v-9.304903l-11.2384732-6.4880194v-11.0884418c0-.6025813-.4888392-1.09383-1.0962625-1.09383-.6025767,0-1.0914159.4912486-1.0914159,1.09383v19.130097Z" style="fill: #d7b254;"/>
      <path d="M128.1153939,29.414436c0-.605-.4888392-1.0938484-1.0938392-1.0938484s-1.0938392.4888484-1.0938392,1.0938484v11.0884233l-11.2360545,6.4880286v9.3024751l13.4261608-7.7512579-.0024279-19.1276691Z" style="fill: #d7b254;"/>
    </g>
    <polygon points="96.8826382 78.2335677 110.3087898 85.9848347 110.3087898 76.6799318 96.8826382 68.9286739 96.8826382 78.2335677" style="fill: #d7b254;"/>
    <polygon points="128.1175818 68.9289047 114.691421 76.6801718 114.691421 85.9850655 128.1175818 78.2338077 128.1175818 68.9289047" style="fill: #d7b254;"/>
    <polygon points="96.8826382 63.4137263 110.3087898 71.1649934 110.3087898 61.8600905 96.8826382 54.1088326 96.8826382 63.4137263" style="fill: #d7b254;"/>
    <polygon points="128.1175818 54.1090726 114.691421 61.8603397 114.691421 71.1652335 128.1175818 63.4139756 128.1175818 54.1090726" style="fill: #d7b254;"/>
    <g>
      <path d="M43.7960668,88.75016l-15.6114205-5.0723124c-.5759598-.1863392-1.1906391.1258355-1.3793993.701793-.1863403.573548.1258401,1.1906414.7042197,1.3794085l15.6114194,5.0723124c.5759598.1863392,1.1906402-.1282542,1.3769806-.701793.188759-.5783854-.1258401-1.1930601-.7017999-1.3794085" style="fill: #d7b254;"/>
      <path d="M47.1107396,107.3984431l11.5216192-10.374537-8.8499413-2.8749593-9.643698,8.682963-10.5463595-3.4243022c-.57354-.1887579-1.1906402.1258355-1.3794004.7042209-.1863403.5735388.1306798,1.1882227.7042197,1.3745619l18.1935603,5.9120527Z" style="fill: #d7b254;"/>
      <path d="M38.5683814,71.7830653c-.5735388-.1863392-1.1906391.1258447-1.3793993.7018022-.1863403.5735388.1282599,1.1906414.7042197,1.3793993l10.5463595,3.4267209,2.6958808,12.6904787,8.849939,2.8749593-3.2234395-15.1637172-18.1935603-5.9096432Z" style="fill: #d7b254;"/>
    </g>
    <polygon points="75.3480271 116.573144 86.8696463 106.198607 78.0197027 103.3236477 66.4980835 113.6981847 75.3480271 116.573144" style="fill: #d7b254;"/>
    <polygon points="76.1509842 83.9917117 79.3744214 99.1554381 88.2219417 102.0303974 85.0009232 86.8666802 76.1509842 83.9917117" style="fill: #d7b254;"/>
    <polygon points="61.2534616 111.9937788 72.7750785 101.6192419 63.9251395 98.7442825 52.4035203 109.1188195 61.2534616 111.9937788" style="fill: #d7b254;"/>
    <polygon points="62.0564187 79.4121065 65.2798581 94.5758329 74.1297972 97.4507922 70.9063554 82.287075 62.0564187 79.4121065" style="fill: #d7b254;"/>
    <g>
      <path d="M68.945192,170.311179l-9.6485411,13.2809598c-.3557384.4888403-.2492592,1.1712805.2420009,1.5270201.4888392.3557396,1.1712782.2468406,1.5270189-.2419998l9.6485388-13.2809598c.3581617-.4888403.2468383-1.1712793-.2420009-1.5270201-.4888392-.3557396-1.1712782-.2492592-1.5270166.2419998" style="fill: #d7b254;"/>
      <path d="M87.7050293,172.9213908l-6.3065222-14.1618394-5.4692006,7.5261992,5.2780194,11.8555804-6.5170573,8.9709395c-.3533198.4888403-.2468429,1.1737003.2444196,1.5294399.4888392.3533209,1.1712782.2444207,1.5270213-.2444196l11.2433198-15.4759Z" style="fill: #d7b254;"/>
      <path d="M51.1932802,170.0386862c-.3557408.4888403-.2492592,1.1737003.2419986,1.5294399.4888415.3533198,1.1737015.2444196,1.5270213-.2419998l6.5194806-8.9733604,12.9034395,1.357622,5.4692006-7.5286201-15.4178207-1.6189815-11.2433198,15.4759Z" style="fill: #d7b254;"/>
    </g>
    <polygon points="105.1566151 148.9011975 98.8500929 134.7393592 93.3808924 142.2655607 99.6874145 156.4298177 105.1566151 148.9011975" style="fill: #d7b254;"/>
    <polygon points="74.4177805 138.0692779 89.8355966 139.6906781 95.3047972 132.162058 79.8869764 130.5406578 74.4177805 138.0692779" style="fill: #d7b254;"/>
    <polygon points="96.4458281 160.8908457 90.1393059 146.7290051 84.6701054 154.2552066 90.9766276 168.4194658 96.4458281 160.8908457" style="fill: #d7b254;"/>
    <polygon points="65.7069889 150.0589238 81.124805 151.6803239 86.5940056 144.1517038 71.1761849 142.5303036 65.7069889 150.0589238" style="fill: #d7b254;"/>
    <g>
      <path d="M154.2857612,171.5966828l9.6485388,13.2809598c.3557384.4888403,1.0381728.5977405,1.5270213.2419998.4888392-.3557396.5977348-1.0381798.2419963-1.5294399l-9.6485388-13.2785388c-.3557384-.4912602-1.0381821-.5977405-1.5270213-.2419998-.4912579.3557396-.597744,1.0357599-.2419963,1.5270189" style="fill: #d7b254;"/>
      <path d="M162.565554,154.5615769l-15.4178253,1.6214002,5.4692052,7.5262015,12.9058512-1.355201,6.5170619,8.9709395c.3557384.4864194,1.0406007.5953195,1.5294399.2395799s.5953253-1.0381798.2395869-1.5270201l-11.2433198-15.4759Z" style="fill: #d7b254;"/>
      <path d="M148.5423785,188.3958385c.3533198.4888398,1.0381821.5977399,1.5270213.2419998.4888392-.3557396.5977348-1.0381798.2419963-1.5270195l-6.5170619-8.9709395,5.2756007-11.8531594-5.4667773-7.5286225-6.3065176,14.1618417,11.2457384,15.4758994Z" style="fill: #d7b254;"/>
    </g>
    <polygon points="145.1139682 130.5416225 129.6961429 132.1630226 135.1653481 139.6892241 150.5831642 138.0702426 145.1139682 130.5416225" style="fill: #d7b254;"/>
    <polygon points="125.3132809 156.428606 131.6197984 142.2667654 126.1505933 134.7381453 119.8440757 148.8999882 125.3132809 156.428606" style="fill: #d7b254;"/>
    <polygon points="153.8247552 142.5310329 138.4069299 144.1524331 143.876135 151.6786346 159.2939511 150.0596531 153.8247552 142.5310329" style="fill: #d7b254;"/>
    <polygon points="134.0240771 168.4182542 140.3305947 154.2564136 134.8613895 146.7277958 128.5548719 160.889634 134.0240771 168.4182542" style="fill: #d7b254;"/>
    <g>
      <path d="M181.8803008,90.8301521l15.6114113-5.0723124c.5759575-.1863392.8905508-.8034418.7018022-1.3793993-.1863484-.573548-.8010231-.8881414-1.3769806-.7018022l-15.6114205,5.0723216c-.5783762.1887579-.8905601.8034325-.7042209,1.3793993.1887671.5759575.8034418.8881414,1.3794085.701793" style="fill: #d7b254;"/>
      <path d="M168.237549,77.69173l-3.2234418,15.1637264,8.8499344-2.8749593,2.6983041-12.6929066,10.543927-3.4267117c.575976-.1863484.8905693-.8034418.7018022-1.3794085-.18633-.5759575-.8034418-.8881322-1.3769806-.701793l-18.1935453,5.9120527Z" style="fill: #d7b254;"/>
      <path d="M196.0818118,101.4844517c.575976-.1863392.8905693-.8010231.7042209-1.3793993-.1887486-.5735388-.8058604-.8881414-1.3793993-.7018022l-10.5463457,3.4267209-9.6412828-8.6805444-8.8499436,2.8749593,11.5216238,10.3745462,18.1911266-5.9144806Z" style="fill: #d7b254;"/>
    </g>
    <polygon points="140.0002615 86.866671 136.7768197 102.0303974 145.6267541 99.1554381 148.8501959 83.9917117 140.0002615 86.866671" style="fill: #d7b254;"/>
    <polygon points="158.5014026 113.6974554 146.9797788 103.3229184 138.132263 106.1978777 149.651459 116.5724193 158.5014026 113.6974554" style="fill: #d7b254;"/>
    <polygon points="154.0945847 82.2870658 150.8711429 97.4507922 159.7210773 94.5758329 162.9445191 79.4121065 154.0945847 82.2870658" style="fill: #d7b254;"/>
    <polygon points="172.5959658 109.1180902 161.074342 98.7435532 152.2268263 101.6185126 163.7460222 111.9930542 172.5959658 109.1180902" style="fill: #d7b254;"/>
    <g>
      <path d="M94.4672355,102.971288c0,2.4756664,2.0061765,4.4818429,4.4818383,4.4818429s4.4818383-2.0061765,4.4818383-4.4818429c0-2.4756571-2.0061765-4.4818336-4.4818383-4.4818336s-4.4818383,2.0061765-4.4818383,4.4818336" style="fill: #10242f;"/>
      <path d="M103.430192,118.4561437c2.1441146,1.2366238,4.8859732.5033604,6.122597-1.6407588,1.2366146-2.1441192.5033604-4.8835592-1.6407634-6.1225924-2.1441146-1.2366238-4.8859778-.5033604-6.122597,1.6407542-1.2366192,2.1441192-.5033604,4.8859778,1.6407634,6.122597" style="fill: #10242f;"/>
      <path d="M110.1531917,106.8527282c2.1441146,1.2366238,4.8859732.5033604,6.122597-1.6407542,1.2366146-2.1441238.5033604-4.8835638-1.6407634-6.122597-2.1441146-1.2366238-4.8859824-.5033604-6.122597,1.6407542-1.2366238,2.1441238-.5033604,4.8859824,1.6407634,6.122597" style="fill: #10242f;"/>
      <path d="M123.5982311,106.8527282c2.1441146,1.2366238,4.8859732.5033604,6.122597-1.6407542,1.2366146-2.1441238.5033604-4.8835638-1.6407634-6.122597-2.1441146-1.2366238-4.8859824-.5033604-6.122597,1.6407542-1.2366238,2.1441238-.5033604,4.8859824,1.6407634,6.122597" style="fill: #10242f;"/>
      <path d="M110.154161,130.0598039c2.1441146,1.2366238,4.8859732.5033604,6.122597-1.6407588,1.2366146-2.1441192.5033604-4.8835592-1.6407634-6.122597-2.1441146-1.2366238-4.8859824-.5033604-6.122597,1.6407588-1.2366238,2.1441192-.5033604,4.8859778,1.6407634,6.122597" style="fill: #10242f;"/>
      <path d="M116.8766807,118.4561437c2.1441146,1.2366238,4.8859732.5033604,6.122597-1.6407588,1.2366146-2.1441192.5033604-4.8835592-1.6407634-6.1225924-2.1441146-1.2366238-4.8859824-.5033604-6.122597,1.6407542-1.2366238,2.1441192-.5033604,4.8859778,1.6407634,6.122597" style="fill: #10242f;"/>
    </g>
  </g>
</svg>