<?xml version="1.0" encoding="UTF-8"?>
<svg id="Ebene_1" xmlns="http://www.w3.org/2000/svg" version="1.1" viewBox="0 0 190 190">
  <!-- Generator: Adobe Illustrator 29.1.0, SVG Export Plug-In . SVG Version: 2.1.0 Build 142)  -->
  <defs>
    <style>
      .st0 {
        fill: #10242f;
      }
    </style>
  </defs>
  <path class="st0" d="M95.5,48c.4,0,.7-.3.7-.7v-10.5c0-.4-.3-.7-.7-.7s-.7.3-.7.7v10.5c0,.4.3.7.7.7Z"/>
  <path class="st0" d="M86.9,40.8c0-.4-.3-.7-.7-.7s-.7.3-.7.7v12.2l8.6,5v-5.9l-7.2-4.1v-7.1Z"/>
  <path class="st0" d="M105.5,40.8c0-.4-.3-.7-.7-.7s-.7.3-.7.7v7.1l-7.2,4.1v5.9l8.6-5v-12.2Z"/>
  <polygon class="st0" points="85.5 72 94.1 76.9 94.1 71 85.5 66 85.5 72"/>
  <polygon class="st0" points="105.5 66 96.9 71 96.9 76.9 105.5 72 105.5 66"/>
  <polygon class="st0" points="94.1 61.5 85.5 56.6 85.5 62.5 94.1 67.4 94.1 61.5"/>
  <polygon class="st0" points="105.5 56.6 96.9 61.5 96.9 67.4 105.5 62.5 105.5 56.6"/>
  <path class="st0" d="M40.8,75.9c-.1.4,0,.8.4.9l10,3.2c.4.1.8,0,.9-.4.1-.4,0-.8-.4-.9l-10-3.2c-.4-.1-.8,0-.9.4Z"/>
  <path class="st0" d="M42.1,86.8l11.6,3.8,7.4-6.6-5.7-1.8-6.2,5.5-6.7-2.2c-.4-.1-.8,0-.9.4-.1.4,0,.8.4.9Z"/>
  <path class="st0" d="M54.6,71.4l1.7,8.1,5.7,1.8-2.1-9.7-11.6-3.8c-.4-.1-.8,0-.9.4-.1.4,0,.8.4.9l6.7,2.2Z"/>
  <polygon class="st0" points="66.1 94.6 71.8 96.4 79.1 89.8 73.5 88 66.1 94.6"/>
  <polygon class="st0" points="80 87.2 77.9 77.5 72.3 75.6 74.3 85.3 80 87.2"/>
  <polygon class="st0" points="70.1 86.9 64.5 85.1 57.1 91.7 62.8 93.5 70.1 86.9"/>
  <polygon class="st0" points="65.3 82.4 71 84.2 68.9 74.5 63.3 72.7 65.3 82.4"/>
  <path class="st0" d="M67.7,130.8l-6.2,8.5c-.2.3-.2.7.2,1,.3.2.7.2,1-.2l6.2-8.5c.2-.3.2-.7-.2-1s-.7-.2-1,.2Z"/>
  <path class="st0" d="M75.6,123.4l-3.5,4.8,3.4,7.6-4.2,5.7c-.2.3-.2.7.2,1,.3.2.7.2,1-.2,0,0,7.2-9.9,7.2-9.9l-4-9Z"/>
  <path class="st0" d="M63.5,120.7l-7.2,9.9c-.2.3-.2.7.2,1,.3.2.7.2,1-.2l4.2-5.7,8.2.9,3.5-4.8-9.8-1Z"/>
  <polygon class="st0" points="90.8 117.1 86.8 108 83.3 112.9 87.3 121.9 90.8 117.1"/>
  <polygon class="st0" points="71.2 110.2 81 111.2 84.5 106.4 74.7 105.4 71.2 110.2"/>
  <polygon class="st0" points="85.2 124.7 81.2 115.7 77.7 120.5 81.7 129.6 85.2 124.7"/>
  <polygon class="st0" points="78.9 114.1 69.1 113 65.6 117.8 75.5 118.9 78.9 114.1"/>
  <path class="st0" d="M128.3,140.1c.2.3.7.4,1,.2s.4-.7.2-1l-6.2-8.5c-.2-.3-.7-.4-1-.2-.3.2-.4.7-.2,1h0s6.2,8.5,6.2,8.5Z"/>
  <path class="st0" d="M133.5,131.4c.2.3.7.4,1,.2s.4-.7.2-1l-7.2-9.9-9.8,1,3.5,4.8,8.2-.9,4.2,5.7Z"/>
  <path class="st0" d="M115.5,135.8l3.4-7.6-3.5-4.8-4,9s7.2,9.9,7.2,9.9c.2.3.7.4,1,.2s.4-.7.2-1l-4.2-5.7Z"/>
  <polygon class="st0" points="119.8 110.2 116.3 105.4 106.5 106.4 110 111.2 119.8 110.2"/>
  <polygon class="st0" points="107.7 112.9 104.2 108 100.2 117.1 103.7 121.9 107.7 112.9"/>
  <polygon class="st0" points="125.4 117.8 121.9 113 112 114.1 115.5 118.9 125.4 117.8"/>
  <polygon class="st0" points="109.2 129.6 113.3 120.5 109.8 115.7 105.7 124.7 109.2 129.6"/>
  <path class="st0" d="M150.2,75.9c-.1-.4-.5-.6-.9-.4l-10,3.2c-.4.1-.6.5-.4.9.1.4.5.6.9.4l10-3.2c.4-.1.6-.5.4-.9Z"/>
  <path class="st0" d="M136.4,71.4l6.7-2.2c.4-.1.6-.5.4-.9-.1-.4-.5-.6-.9-.4l-11.6,3.8-2.1,9.7,5.7-1.8,1.7-8.1Z"/>
  <path class="st0" d="M148.9,86.8c.4-.1.6-.5.4-.9-.1-.4-.5-.6-.9-.4l-6.7,2.2-6.2-5.5-5.7,1.8,7.4,6.6,11.6-3.8Z"/>
  <polygon class="st0" points="116.6 85.3 118.7 75.6 113.1 77.5 111 87.2 116.6 85.3"/>
  <polygon class="st0" points="124.9 94.6 117.5 88 111.9 89.8 119.2 96.4 124.9 94.6"/>
  <polygon class="st0" points="127.7 72.7 122.1 74.5 120 84.2 125.6 82.4 127.7 72.7"/>
  <polygon class="st0" points="133.9 91.7 126.5 85.1 120.9 86.9 128.2 93.5 133.9 91.7"/>
  <path class="st0" d="M84,87.8c0,1.6,1.3,2.9,2.9,2.9s2.9-1.3,2.9-2.9-1.3-2.9-2.9-2.9-2.9,1.3-2.9,2.9Z"/>
  <path class="st0" d="M93.6,96.6c.8-1.4.3-3.1-1-3.9-1.4-.8-3.1-.3-3.9,1s-.3,3.1,1,3.9c1.4.8,3.1.3,3.9-1Z"/>
  <path class="st0" d="M92.9,86.3c-.8,1.4-.3,3.1,1,3.9,1.4.8,3.1.3,3.9-1,.8-1.4.3-3.1-1-3.9-1.4-.8-3.1-.3-3.9,1Z"/>
  <path class="st0" d="M105.4,85.3c-1.4-.8-3.1-.3-3.9,1-.8,1.4-.3,3.1,1,3.9,1.4.8,3.1.3,3.9-1,.8-1.4.3-3.1-1-3.9Z"/>
  <path class="st0" d="M96.9,100.1c-1.4-.8-3.1-.3-3.9,1-.8,1.4-.3,3.1,1,3.9,1.4.8,3.1.3,3.9-1,.8-1.4.3-3.1-1-3.9Z"/>
  <path class="st0" d="M102.2,96.6c.8-1.4.3-3.1-1-3.9-1.4-.8-3.1-.3-3.9,1s-.3,3.1,1,3.9c1.4.8,3.1.3,3.9-1Z"/>
  <path class="st0" d="M37.3,41.7l-3.8-4.1,1.7-1.6c0,0,.1-.1.2-.2l6.5,1.6,2.2-2-7.1-1.9c.2-.6.3-1.2.3-1.7,0-.7-.2-1.3-.5-1.9-.3-.6-.7-1.1-1.1-1.6-.6-.6-1.2-1-1.8-1.3-.6-.3-1.3-.4-2-.4-.7,0-1.4.2-2.1.5-.7.3-1.4.8-2,1.4l-3.3,3.1,11,11.8,1.9-1.8ZM31.8,35.8l-3.8-4.1,1.7-1.6c.4-.4.8-.6,1.2-.7.4-.1.8-.1,1.1,0,.4,0,.7.2.9.4.3.2.5.4.7.5.2.2.4.5.5.8.1.3.2.6.3,1,0,.4,0,.7-.2,1.1-.2.4-.4.8-.9,1.2l-1.7,1.6Z"/>
  <path class="st0" d="M11.4,60.9c.7.9,1.5,1.6,2.4,2.1,1,.6,2,.9,3.1,1,1.1.1,2.1,0,3.1-.3,1-.3,1.9-.8,2.8-1.4.8-.7,1.5-1.5,2.1-2.5.5-1,.9-2,1-3.1.1-1.1,0-2.1-.2-3.2-.3-1-.8-2-1.4-2.8-.7-.9-1.5-1.6-2.5-2.1-1-.5-2-.9-3.1-1-1.1-.1-2.1,0-3.2.3-1,.3-2,.8-2.9,1.4-.9.7-1.6,1.5-2.1,2.4-.6,1-.9,2-1,3.1-.1,1.1,0,2.1.3,3.2.3,1,.8,2,1.4,2.8ZM12.2,55.2c0-.7.3-1.4.7-2.1.4-.7.9-1.2,1.5-1.7.6-.4,1.2-.8,1.9-.9.7-.2,1.4-.2,2.2-.1.7,0,1.5.3,2.2.7.7.4,1.3.9,1.7,1.5.5.6.8,1.2,1,1.9.2.7.3,1.4.2,2.1,0,.7-.3,1.4-.7,2.1-.4.7-.9,1.3-1.5,1.7-.6.4-1.2.8-1.9,1-.7.2-1.4.2-2.2.2-.7,0-1.5-.3-2.2-.7-.7-.4-1.3-.9-1.8-1.5-.5-.6-.8-1.2-1-1.9-.2-.7-.3-1.4-.2-2.2Z"/>
  <path class="st0" d="M189.3,79.6l-.7-4.5-15.9,2.6.4,2.5,5.5-.9.4,2.3c0,0,0,.2,0,.3l-4.9,4.5.5,2.9,5.5-4.9c.4.5.8.9,1.3,1.2.6.3,1.2.6,1.8.6.7,0,1.3,0,1.9,0,.8-.1,1.5-.4,2.1-.8.6-.4,1.1-.9,1.4-1.5.4-.6.6-1.3.7-2,.1-.8,0-1.6,0-2.5ZM186.9,81.8c-.1.4-.3.7-.6,1-.2.3-.5.5-.8.6-.3.1-.6.2-.8.3-.3,0-.6,0-.9,0-.3,0-.6-.1-1-.3-.3-.2-.6-.4-.8-.8-.2-.3-.4-.8-.5-1.4l-.4-2.3,5.5-.9.4,2.4c0,.5,0,1,0,1.4Z"/>
  <polygon class="st0" points="128.9 13.7 130.2 23 130.3 23 139 18.6 134.6 26.8 136.9 28 144.7 13.3 144.6 13.3 132.1 19.5 130.3 5.7 130.3 5.7 122.6 20.5 124.8 21.6 128.9 13.7"/>
  <polygon class="st0" points="16.8 85.2 10.6 83.9 9.8 82.5 18.2 78.7 18.9 75.5 8.6 80.3 3.1 72.4 2.4 75.6 7.5 82.9 7.9 83.3 7.1 83.1 1.1 81.8 .5 84.3 16.2 87.7 16.8 85.2"/>
  <polygon class="st0" points="79.3 17.8 78.6 11.6 79.6 10.3 85.9 17.1 89.2 16.7 81.3 8.5 87.1 .8 83.8 1.2 78.5 8.3 78.2 8.8 78.2 8 77.5 1.9 74.9 2.2 76.7 18.1 79.3 17.8"/>
  <polygon class="st0" points="155.5 30.7 153.5 39.8 153.5 39.9 163.2 38.8 156.3 45 158 46.9 170.4 35.8 170.4 35.8 156.5 37.2 159.7 23.7 159.7 23.7 147.2 34.7 148.9 36.6 155.5 30.7"/>
  <path class="st0" d="M102.6,12.8l5.8,1,.8,4,2.9.5L107.9.5h-.2s-9.7,15.3-9.7,15.3l2.5.4,2.1-3.5ZM103.9,10.8l2.9-4.7,1.1,5.3-4-.7Z"/>
  <polygon class="st0" points="169.3 67 171.5 66.1 168.4 58.3 172.4 56.6 175.1 63.3 177.4 62.4 174.7 55.7 178.7 54.1 181.7 61.6 184 60.6 180 50.8 165.1 56.8 169.3 67"/>
  <polygon class="st0" points="54.7 27.3 50.2 17.7 65.4 23 65.5 22.9 58.4 7.9 56.1 8.9 60.7 18.7 45.5 13.3 45.4 13.4 52.4 28.4 54.7 27.3"/>
  <path class="st0" d="M13.3,113.2c-.1-.5-.4-1-.8-1.4-.4-.4-.9-.7-1.4-.8-.5-.2-1.1-.2-1.7,0s-1.1.4-1.5.8c-.4.4-.7.8-.8,1.4-.2.5-.2,1.1,0,1.6.1.6.4,1.1.8,1.5.4.4.8.7,1.4.8.5.2,1.1.2,1.7,0,.6-.1,1.1-.4,1.5-.8.4-.4.7-.9.8-1.4.2-.5.2-1.1,0-1.7Z"/>
  <polygon class="st0" points="32.9 141.8 24.2 148.2 26.5 132.2 26.5 132.1 13 141.9 14.6 144 23.1 137.7 20.9 153.6 20.9 153.7 34.4 143.9 32.9 141.8"/>
  <path class="st0" d="M170.7,137.2h0s-3,4.8-3,4.8l2.1,1.3,1.6-2.6,2.3,1.4c0,.4-.1.8-.3,1.3-.2.4-.4.9-.7,1.3-.5.7-1,1.3-1.6,1.8-.6.5-1.2.8-1.9,1-.7.2-1.4.2-2.1,0s-1.4-.4-2.1-.8c-.8-.5-1.4-1-1.9-1.6s-.8-1.3-.9-2-.1-1.4,0-2.2c.2-.8.5-1.5,1-2.3.2-.3.5-.6.8-1,.3-.3.7-.7,1-.9.4-.3.7-.5,1-.7l-1.6-2c-.6.3-1.2.8-1.8,1.4-.6.6-1.2,1.3-1.7,2.1-.6.9-1,1.9-1.2,3-.2,1-.2,2.1,0,3.1.2,1,.7,2,1.3,3,.7.9,1.6,1.8,2.8,2.5.9.6,1.9,1,3,1.1,1,.2,2,.1,3-.1,1-.3,1.9-.7,2.8-1.4.9-.7,1.7-1.6,2.4-2.7.2-.4.5-.9.7-1.3.2-.5.4-1,.5-1.5s.2-1,.3-1.4c0-.4,0-.8,0-1.1l-5.6-3.5Z"/>
  <path class="st0" d="M133.6,163.5l-2.2,1.2,5,9c.3.6.5,1.1.4,1.8,0,.6-.2,1.2-.5,1.7-.3.5-.8,1-1.4,1.3-.6.3-1.2.5-1.8.5-.6,0-1.2-.2-1.8-.5-.5-.3-1-.7-1.3-1.3l-5-9h0s-2.2,1.2-2.2,1.2l5.1,9c.6,1,1.3,1.8,2.2,2.3s1.9.7,3,.7c1.1,0,2.1-.3,3.1-.9,1-.6,1.8-1.3,2.4-2.2.6-.9.9-1.9,1-2.9,0-1.1-.2-2.1-.8-3.1l-5.1-9Z"/>
  <path class="st0" d="M29.6,163.4l2,1.5,3.5-2.1,4.7,3.6-1.1,3.9,2.3,1.8,4.5-17.6h-.1c0,0-15.8,8.9-15.8,8.9ZM37.2,161.7l4.8-2.8-1.5,5.3-3.2-2.5Z"/>
  <path class="st0" d="M182.8,111.7c-.4-.4-.9-.6-1.5-.8-.6-.1-1.1,0-1.7,0-.5.2-1,.5-1.4.9s-.6.9-.8,1.5c-.1.5,0,1.1,0,1.6.2.5.5,1,.9,1.4.4.4.9.6,1.5.8.6.1,1.1.1,1.7,0,.5-.2,1-.5,1.4-.9.4-.4.6-.9.7-1.5.1-.6.1-1.1,0-1.7-.2-.5-.5-1-.9-1.4Z"/>
  <path class="st0" d="M155.2,158.3c0-.7-.2-1.3-.5-1.9-.3-.6-.7-1.1-1.1-1.6-.6-.6-1.2-1-1.8-1.3-.7-.3-1.3-.4-2-.3-.7,0-1.4.2-2,.6-.7.4-1.3.8-2,1.5l-3.2,3.2,11.2,11.5,1.8-1.8-3.9-4,1.7-1.6c0,0,.1-.1.2-.2l6.5,1.5,2.1-2.1-7.1-1.7c.2-.6.3-1.2.2-1.7ZM151.6,160.8l-1.6,1.6-3.9-4,1.7-1.7c.4-.4.8-.6,1.2-.8.4-.1.8-.2,1.1,0,.4,0,.7.2,1,.3.3.2.5.3.7.5.2.2.4.4.5.7s.2.6.3,1c0,.3,0,.7-.2,1.1-.1.4-.4.8-.8,1.2Z"/>
  <path class="st0" d="M62.5,177.3c-.2.6-.6,1.1-1.1,1.5-.5.4-1.1.6-1.7.7-.6,0-1.3,0-1.9-.2-.6-.2-1.1-.6-1.5-1.1-.4-.5-.7-1-.8-1.6-.1-.6,0-1.2.2-1.8l3.7-9.6-2.4-.9-3.7,9.7c-.4,1.1-.5,2.1-.3,3.2.2,1,.7,1.9,1.4,2.7.7.8,1.6,1.4,2.7,1.8,1.1.4,2.2.6,3.2.4,1.1-.1,2-.5,2.8-1.1.8-.6,1.5-1.5,1.9-2.6l3.7-9.7-2.4-.9-3.7,9.6Z"/>
  <polygon class="st0" points="84.8 183.7 77.5 171.9 77.5 171.9 76.4 188.5 78.9 188.6 79.5 179.7 84.5 187.7 84.5 187.7 90.7 180.1 90.1 189.3 92.6 189.5 93.7 172.9 93.7 172.9 84.8 183.7"/>
  <path class="st0" d="M115.1,180.3c-.6-.5-1.4-.8-2.3-.9.5-.5.9-1,1.1-1.6.3-.7.3-1.5,0-2.4-.3-1.3-1-2.2-2.1-2.6-1.1-.4-2.4-.4-4,0,0,0-4.3,1-4.3,1l3.8,15.6,4.9-1.2c.7-.2,1.3-.4,1.9-.7s1.1-.7,1.5-1.2c.4-.5.7-1,.9-1.7.2-.6.1-1.4,0-2.2-.2-.9-.7-1.6-1.3-2.1ZM106.6,175.6l1.9-.5c.8-.2,1.4-.2,1.9,0s.9.7,1,1.4c.1.6,0,1.1-.2,1.7-.2.5-.7.9-1.5,1.1l-2.1.5-1-4.2ZM113.7,184.4c-.2.4-.5.7-.9,1-.4.3-.9.4-1.4.6l-2.3.5-1-4.2,2.1-.5c.5-.1,1-.2,1.5-.2.5,0,.9.1,1.3.4.4.2.6.6.8,1.2.1.5,0,.9,0,1.3Z"/>
</svg>