<?xml version="1.0" encoding="UTF-8"?>
<svg id="Ebene_1" xmlns="http://www.w3.org/2000/svg" version="1.1" viewBox="0 0 420 420">
  <!-- Generator: Adobe Illustrator 29.1.0, SVG Export Plug-In . SVG Version: 2.1.0 Build 142)  -->
  <g>
    <path d="M212.6452119,51.1846628V11.4284279c0-1.465291-1.1829488-2.6492664-2.6469692-2.6492664s-2.6469469,1.1839755-2.6469469,2.6492664v39.7562349c0,1.465291,1.1829265,2.6492664,2.6469469,2.6492664s2.6469692-1.1839755,2.6469692-2.6492664" style="fill: #e1a13c;"/>
    <path d="M172.2066304,72.7766202l32.48952,18.7733248v-22.536182l-27.1956262-15.7137787v-26.8558569c0-1.459433-1.1829265-2.6492217-2.6528109-2.6492217-1.4581563,0-2.6410829,1.1897887-2.6410829,2.6492217v46.3324927Z" style="fill: #e1a13c;"/>
    <path d="M247.7857892,26.4476601c0-1.465291-1.1829265-2.6492664-2.6469469-2.6492664s-2.6469469,1.1839755-2.6469469,2.6492664v26.8558121l-27.1897733,15.7138011v22.5303017l32.4895423-18.7733025-.0058752-46.3266124Z" style="fill: #e1a13c;"/>
  </g>
  <polygon points="172.2066304 144.6860598 204.6961504 163.4593847 204.6961504 140.9232027 172.2066304 122.1499002 172.2066304 144.6860598" style="fill: #e1a13c;"/>
  <polygon points="247.7910836 122.1504592 215.3015412 140.923784 215.3015412 163.4599436 247.7910836 144.6866412 247.7910836 122.1504592" style="fill: #e1a13c;"/>
  <polygon points="172.2066304 108.7928708 204.6961504 127.5661956 204.6961504 105.0300136 172.2066304 86.2567112 172.2066304 108.7928708" style="fill: #e1a13c;"/>
  <polygon points="247.7910836 86.2572925 215.3015412 105.0306173 215.3015412 127.566777 247.7910836 108.7934745 247.7910836 86.2572925" style="fill: #e1a13c;"/>
  <g>
    <path d="M43.7441138,170.1569154l-37.7775832-12.2849809c-1.3937469-.4513076-2.8811899.3047696-3.3379647,1.6997205-.4509191,1.3891153.3045165,2.883696,1.7041191,3.3408839l37.7775804,12.2849809c1.3937469.4513076,2.8811927-.3106276,3.3321118-1.6997205.456772-1.4008312-.3045165-2.8895539-1.6982634-3.3408839" style="fill: #e1a13c;"/>
    <path d="M51.7651856,215.3224698l27.8808023-25.1268019-21.4156933-6.963061-23.3364801,21.0298631-25.5208022-8.2935522c-1.3878913-.4571656-2.8811927.3047696-3.3379675,1.7056008-.4509191,1.389093.3162278,2.877838,1.7041191,3.3291457l44.0260217,14.3188055Z" style="fill: #e1a13c;"/>
    <path d="M31.093803,129.0631463c-1.3878885-.4513076-2.8811899.304792-3.3379647,1.6997429-.4509191,1.389093.3103722,2.883696,1.7041191,3.3408616l25.5208022,8.2994101,6.5236767,30.73594,21.4156878,6.963061-7.8002993-36.7260456-44.0260217-14.3129699Z" style="fill: #e1a13c;"/>
  </g>
  <polygon points="120.0957055 237.5433066 147.9765078 212.4165047 126.5608089 205.4534437 98.6800065 230.5802456 120.0957055 237.5433066" style="fill: #e1a13c;"/>
  <polygon points="122.038756 158.6321033 129.8390498 195.3581713 151.2488847 202.3212323 143.4544438 165.5951867 122.038756 158.6321033" style="fill: #e1a13c;"/>
  <polygon points="85.9887117 226.4522284 113.8695084 201.3254265 92.4538207 194.3623655 64.5730184 219.4891674 85.9887117 226.4522284" style="fill: #e1a13c;"/>
  <polygon points="87.9317623 147.5404438 95.7320616 184.2665117 117.1477493 191.2295727 109.3474444 154.5035271 87.9317623 147.5404438" style="fill: #e1a13c;"/>
  <g>
    <path d="M104.6016871,367.6951354l-23.3481998,32.1660665c-.8608402,1.1839559-.6031746,2.8368045.5856104,3.6983946,1.1829265.8615901,2.8343391.5978401,3.6951849-.5861158l23.3481942-32.1660665c.8667043-1.1839559.5973161-2.8368017-.5856104-3.6983946-1.1829265-.8615901-2.8343391-.603698-3.6951793.5861158" style="fill: #e1a13c;"/>
    <path d="M149.9980247,374.0169863l-15.2609538-34.2995292-13.2347456,18.2282174,12.7721124,28.7138425-15.7704211,21.7273329c-.8549874,1.1839559-.5973273,2.8426652.5914633,3.7042553,1.1829265.8557322,2.8343391.5919794,3.6951905-.5919766l27.2073543-37.4821424Z" style="fill: #e1a13c;"/>
    <path d="M61.6443968,367.0351665c-.8608458,1.1839559-.6031746,2.8426652.5856048,3.7042553,1.1829321.8557294,2.8402031.5919766,3.6951905-.5861158l15.7762851-21.7331965,31.2246255,3.2881177,13.2347456-18.234081-37.3090972-3.9211223-27.2073543,37.4821424Z" style="fill: #e1a13c;"/>
  </g>
  <polygon points="192.2285657 315.8408344 176.9676119 281.541308 163.7328663 299.769531 178.9938201 334.0749154 192.2285657 315.8408344" style="fill: #e1a13c;"/>
  <polygon points="117.8446312 289.6062662 155.1537172 293.5332464 168.3884628 275.2991654 131.0793656 271.3721852 117.8446312 289.6062662" style="fill: #e1a13c;"/>
  <polygon points="171.1496075 344.8793847 155.8886538 310.5798527 142.6539082 328.8080758 157.9148619 363.1134657 171.1496075 344.8793847" style="fill: #e1a13c;"/>
  <polygon points="96.7656618 318.6448109 134.0747478 322.5717911 147.3094934 304.3377102 110.0003963 300.41073 96.7656618 318.6448109" style="fill: #e1a13c;"/>
  <g>
    <path d="M311.1146341,370.8085852l23.3481942,32.1660665c.8608402,1.1839559,2.5122416,1.4477087,3.6951905.5861158,1.1829265-.8615901,1.4464395-2.5144387.5855992-3.7042553l-23.3481942-32.1602029c-.8608402-1.1898167-2.512264-1.4477087-3.6951905-.5861158-1.1887794.8615901-1.4464618,2.508578-.5855992,3.6983918" style="fill: #e1a13c;"/>
    <path d="M331.150643,329.5500951l-37.3091083,3.9269802,13.2347568,18.228223,31.2304616-3.2822542,15.7704322,21.7273329c.8608402,1.1780924,2.5181168,1.4418452,3.7010434.5802551s1.4406089-2.5144387.5797687-3.6983946l-27.2073543-37.4821424Z" style="fill: #e1a13c;"/>
    <path d="M297.2164037,411.4956114c.8549874,1.1839545,2.512264,1.4477073,3.6951905.5861158,1.1829265-.8615901,1.4464395-2.5144387.5855992-3.6983932l-15.7704322-21.7273329,12.7662595-28.7079789-13.2288816-18.2340866-15.2609426,34.2995348,27.2132071,37.482141Z" style="fill: #e1a13c;"/>
  </g>
  <polygon points="288.920102 271.3745217 251.6109937 275.3015019 264.8457505 293.5297249 302.1548365 289.6086026 288.920102 271.3745217" style="fill: #e1a13c;"/>
  <polygon points="241.0050444 334.0719808 256.265987 299.7724488 243.0312302 281.5383678 227.7702876 315.8379054 241.0050444 334.0719808" style="fill: #e1a13c;"/>
  <polygon points="309.9990602 300.4124963 272.6899519 304.3394765 285.9247086 322.5676995 323.2337946 318.6465772 309.9990602 300.4124963" style="fill: #e1a13c;"/>
  <polygon points="262.0840249 363.1105311 277.3449675 328.8109991 264.1102107 310.5769238 248.8492681 344.8764502 262.0840249 363.1105311" style="fill: #e1a13c;"/>
  <g>
    <path d="M377.8897887,175.1945908l37.7775609-12.2849809c1.3937413-.4513076,2.1550158-1.9459107,1.698269-3.3408616-.4509387-1.3891153-1.9383705-2.1510505-3.3321118-1.6997429l-37.7775832,12.2850033c-1.3995942.4571656-2.1550382,1.9458883-1.7041219,3.3408616.4567915,1.3949509,1.9442234,2.1510505,3.337987,1.6997205" style="fill: #e1a13c;"/>
    <path d="M344.8761245,143.3737462l-7.8003049,36.726068,21.4156766-6.963061,6.5295407-30.7418203,25.5149158-8.2993877c1.393786-.45133,2.1550605-1.9459107,1.698269-3.3408839-.450894-1.3949509-1.9442234-2.1510282-3.3321118-1.6997205l-44.0259854,14.3188055Z" style="fill: #e1a13c;"/>
    <path d="M412.2555762,200.9989691c1.393786-.4513076,2.1550605-1.9400527,1.7041219-3.3408616-.4567468-1.389093-1.9500762-2.1510505-3.3379647-1.6997429l-25.5207687,8.2994101-23.3306356-21.0240051-21.4156989,6.963061,27.8808135,25.1268243,44.0201326-14.3246858Z" style="fill: #e1a13c;"/>
  </g>
  <polygon points="276.5456047 165.5951643 268.7452998 202.3212323 290.1609764 195.3581713 297.9612813 158.6321033 276.5456047 165.5951643" style="fill: #e1a13c;"/>
  <polygon points="321.3159315 230.5784793 293.435118 205.4516774 272.0252943 212.4147384 299.9002326 237.5415515 321.3159315 230.5784793" style="fill: #e1a13c;"/>
  <polygon points="310.652012 154.5035047 302.8517071 191.2295727 324.2673837 184.2665117 332.0676886 147.5404438 310.652012 154.5035047" style="fill: #e1a13c;"/>
  <polygon points="355.4229197 219.4874011 327.5421062 194.3605992 306.1322825 201.3236602 334.0072208 226.4504732 355.4229197 219.4874011" style="fill: #e1a13c;"/>
  <g>
    <path d="M166.3616738,204.6000396c0,5.995986,4.8546832,10.8548823,10.8454588,10.8548823s10.8454588-4.8588964,10.8454588-10.8548823c0-5.9959636-4.8546832-10.85486-10.8454588-10.85486s-10.8454588,4.8588964-10.8454588,10.85486" style="fill: #e1a13c;"/>
    <path d="M188.050849,242.1038727c5.1884752,2.995064,11.8234122,1.2191231,14.8158791-3.9738661,2.9924446-5.1929893,1.218066-11.8278265-3.9704315-14.8287261-5.1884752-2.995064-11.8234233-1.2191231-14.8158791,3.9738549-2.9924558,5.1929893-1.218066,11.8336844,3.9704315,14.8287373" style="fill: #e1a13c;"/>
    <path d="M204.3196236,214.0007656c5.1884752,2.995064,11.8234122,1.2191231,14.8158791-3.9738549,2.9924446-5.1930004,1.218066-11.8278377-3.9704315-14.8287373-5.1884752-2.995064-11.8234345-1.2191231-14.8158791,3.9738549-2.992467,5.1930004-1.218066,11.8336956,3.9704315,14.8287373" style="fill: #e1a13c;"/>
    <path d="M236.8548495,214.0007656c5.1884752,2.995064,11.8234122,1.2191231,14.8158791-3.9738549,2.9924446-5.1930004,1.218066-11.8278377-3.9704315-14.8287373-5.1884752-2.995064-11.8234345-1.2191231-14.8158791,3.9738549-2.992467,5.1930004-1.218066,11.8336956,3.9704315,14.8287373" style="fill: #e1a13c;"/>
    <path d="M204.3219692,270.2075723c5.1884752,2.995064,11.8234122,1.2191231,14.8158791-3.9738661,2.9924446-5.1929893,1.218066-11.8278265-3.9704315-14.8287373-5.1884752-2.995064-11.8234345-1.2191231-14.8158791,3.9738661-2.992467,5.1929893-1.218066,11.8336844,3.9704315,14.8287373" style="fill: #e1a13c;"/>
    <path d="M220.5895822,242.1038727c5.1884752,2.995064,11.8234122,1.2191231,14.8158791-3.9738661,2.9924446-5.1929893,1.218066-11.8278265-3.9704315-14.8287261-5.1884752-2.995064-11.8234345-1.2191231-14.8158791,3.9738549-2.992467,5.1929893-1.218066,11.8336844,3.9704315,14.8287373" style="fill: #e1a13c;"/>
  </g>
</svg>